# Blender 3.4.1
# www.blender.org
o Cube.008
v -0.621600 0.921540 0.207540
v -0.615660 0.915600 0.207540
v -0.615660 0.909660 0.201600
v -0.627540 0.921540 0.201600
v -0.621283 0.919712 0.207540
v -0.620451 0.918060 0.207540
v -0.621917 0.921540 0.205712
v -0.621538 0.919581 0.205689
v -0.620708 0.917829 0.205659
v -0.622749 0.921540 0.204060
v -0.622145 0.919376 0.204036
v -0.621209 0.917444 0.204005
v -0.615660 0.915283 0.205712
v -0.615660 0.914451 0.204060
v -0.617488 0.915917 0.207540
v -0.617609 0.915711 0.205679
v -0.617824 0.915071 0.204030
v -0.619140 0.916749 0.207540
v -0.619365 0.916508 0.205659
v -0.619755 0.915991 0.204005
v -0.619315 0.910294 0.201600
v -0.622620 0.911958 0.201600
v -0.615660 0.911488 0.201917
v -0.618714 0.912326 0.202082
v -0.621445 0.913669 0.202095
v -0.615660 0.913140 0.202749
v -0.618187 0.913953 0.202821
v -0.620440 0.915069 0.202817
v -0.625712 0.921540 0.201917
v -0.624060 0.921540 0.202749
v -0.626906 0.917885 0.201600
v -0.624813 0.918507 0.202057
v -0.623241 0.919013 0.202806
v -0.625242 0.914580 0.201600
v -0.623499 0.915767 0.202095
v -0.622131 0.916760 0.202817
v -0.514860 0.921540 0.201600
v -0.526740 0.909660 0.201600
v -0.526740 0.915600 0.207540
v -0.520800 0.921540 0.207540
v -0.515494 0.917885 0.201600
v -0.517158 0.914580 0.201600
v -0.516688 0.921540 0.201917
v -0.517526 0.918486 0.202082
v -0.518869 0.915755 0.202095
v -0.518340 0.921540 0.202749
v -0.519153 0.919013 0.202821
v -0.520269 0.916760 0.202817
v -0.526740 0.911488 0.201917
v -0.526740 0.913140 0.202749
v -0.523085 0.910294 0.201600
v -0.523707 0.912387 0.202057
v -0.524213 0.913959 0.202806
v -0.519780 0.911958 0.201600
v -0.520967 0.913701 0.202095
v -0.521960 0.915069 0.202817
v -0.524912 0.915917 0.207540
v -0.523260 0.916749 0.207540
v -0.526740 0.915283 0.205712
v -0.524781 0.915661 0.205689
v -0.523029 0.916492 0.205659
v -0.526740 0.914451 0.204060
v -0.524576 0.915055 0.204036
v -0.522645 0.915990 0.204005
v -0.520483 0.921540 0.205712
v -0.519651 0.921540 0.204060
v -0.521117 0.919712 0.207540
v -0.520911 0.919591 0.205679
v -0.520271 0.919376 0.204030
v -0.521949 0.918060 0.207540
v -0.521708 0.917835 0.205659
v -0.521191 0.917445 0.204005
v -0.627540 0.960060 0.201600
v -0.615660 0.971940 0.201600
v -0.615660 0.966000 0.207540
v -0.621600 0.960060 0.207540
v -0.626906 0.963715 0.201600
v -0.625242 0.967020 0.201600
v -0.625712 0.960060 0.201917
v -0.624874 0.963114 0.202082
v -0.623531 0.965845 0.202095
v -0.624060 0.960060 0.202749
v -0.623247 0.962587 0.202821
v -0.622131 0.964840 0.202817
v -0.615660 0.970112 0.201917
v -0.615660 0.968460 0.202749
v -0.619315 0.971306 0.201600
v -0.618693 0.969213 0.202057
v -0.618187 0.967641 0.202806
v -0.622620 0.969642 0.201600
v -0.621433 0.967899 0.202095
v -0.620440 0.966531 0.202817
v -0.617488 0.965683 0.207540
v -0.619140 0.964851 0.207540
v -0.615660 0.966317 0.205712
v -0.617619 0.965938 0.205689
v -0.619371 0.965108 0.205659
v -0.615660 0.967149 0.204060
v -0.617824 0.966545 0.204036
v -0.619755 0.965609 0.204005
v -0.621917 0.960060 0.205712
v -0.622749 0.960060 0.204060
v -0.621283 0.961887 0.207540
v -0.621489 0.962009 0.205679
v -0.622129 0.962224 0.204030
v -0.620451 0.963540 0.207540
v -0.620692 0.963765 0.205659
v -0.621209 0.964155 0.204005
v -0.520800 0.960060 0.207540
v -0.526740 0.966000 0.207540
v -0.526740 0.971940 0.201600
v -0.514860 0.960060 0.201600
v -0.521117 0.961887 0.207540
v -0.521949 0.963540 0.207540
v -0.520483 0.960060 0.205712
v -0.520862 0.962019 0.205689
v -0.521692 0.963771 0.205659
v -0.519651 0.960060 0.204060
v -0.520255 0.962224 0.204036
v -0.521191 0.964155 0.204005
v -0.526740 0.966317 0.205712
v -0.526740 0.967149 0.204060
v -0.524912 0.965683 0.207540
v -0.524791 0.965889 0.205679
v -0.524576 0.966529 0.204030
v -0.523260 0.964851 0.207540
v -0.523035 0.965092 0.205659
v -0.522645 0.965609 0.204005
v -0.523085 0.971306 0.201600
v -0.519780 0.969642 0.201600
v -0.526740 0.970112 0.201917
v -0.523686 0.969274 0.202082
v -0.520955 0.967931 0.202095
v -0.526740 0.968460 0.202749
v -0.524213 0.967647 0.202821
v -0.521960 0.966531 0.202817
v -0.516688 0.960060 0.201917
v -0.518340 0.960060 0.202749
v -0.515494 0.963715 0.201600
v -0.517586 0.963093 0.202057
v -0.519159 0.962587 0.202806
v -0.517158 0.967020 0.201600
v -0.518901 0.965833 0.202095
v -0.520269 0.964840 0.202817
v -0.621600 0.960060 0.212460
v -0.615660 0.966000 0.212460
v -0.615660 0.971940 0.218400
v -0.627540 0.960060 0.218400
v -0.621283 0.961887 0.212460
v -0.620451 0.963540 0.212460
v -0.621917 0.960060 0.214288
v -0.621538 0.962019 0.214310
v -0.620708 0.963771 0.214341
v -0.622749 0.960060 0.215940
v -0.622145 0.962224 0.215964
v -0.621209 0.964155 0.215995
v -0.615660 0.966317 0.214288
v -0.615660 0.967149 0.215940
v -0.617488 0.965683 0.212460
v -0.617609 0.965889 0.214321
v -0.617824 0.966529 0.215970
v -0.619140 0.964851 0.212460
v -0.619365 0.965092 0.214341
v -0.619755 0.965609 0.215995
v -0.619315 0.971306 0.218400
v -0.622620 0.969642 0.218400
v -0.615660 0.970112 0.218083
v -0.618714 0.969274 0.217918
v -0.621444 0.967931 0.217905
v -0.615660 0.968460 0.217251
v -0.618187 0.967647 0.217178
v -0.620440 0.966531 0.217183
v -0.625712 0.960060 0.218083
v -0.624060 0.960060 0.217251
v -0.626906 0.963715 0.218400
v -0.624813 0.963093 0.217943
v -0.623241 0.962587 0.217194
v -0.625242 0.967020 0.218400
v -0.623499 0.965833 0.217905
v -0.622131 0.964840 0.217183
v -0.627540 0.921540 0.218400
v -0.615660 0.909660 0.218400
v -0.615660 0.915600 0.212460
v -0.621600 0.921540 0.212460
v -0.626906 0.917885 0.218400
v -0.625242 0.914580 0.218400
v -0.625712 0.921540 0.218083
v -0.624874 0.918486 0.217918
v -0.623531 0.915755 0.217905
v -0.624060 0.921540 0.217251
v -0.623247 0.919013 0.217178
v -0.622131 0.916760 0.217183
v -0.615660 0.911488 0.218083
v -0.615660 0.913140 0.217251
v -0.619315 0.910294 0.218400
v -0.618693 0.912386 0.217943
v -0.618187 0.913959 0.217194
v -0.622620 0.911958 0.218400
v -0.621433 0.913701 0.217905
v -0.620440 0.915069 0.217183
v -0.617488 0.915917 0.212460
v -0.619140 0.916749 0.212460
v -0.615660 0.915283 0.214288
v -0.617619 0.915661 0.214310
v -0.619371 0.916492 0.214341
v -0.615660 0.914451 0.215940
v -0.617824 0.915055 0.215964
v -0.619755 0.915991 0.215995
v -0.621917 0.921540 0.214288
v -0.622749 0.921540 0.215940
v -0.621283 0.919712 0.212460
v -0.621489 0.919591 0.214321
v -0.622129 0.919376 0.215970
v -0.620451 0.918060 0.212460
v -0.620692 0.917835 0.214341
v -0.621209 0.917445 0.215995
v -0.520800 0.921540 0.212460
v -0.526740 0.915600 0.212460
v -0.526740 0.909660 0.218400
v -0.514860 0.921540 0.218400
v -0.521117 0.919712 0.212460
v -0.521949 0.918060 0.212460
v -0.520483 0.921540 0.214288
v -0.520862 0.919581 0.214310
v -0.521692 0.917829 0.214341
v -0.519651 0.921540 0.215940
v -0.520255 0.919376 0.215964
v -0.521191 0.917444 0.215995
v -0.526740 0.915283 0.214288
v -0.526740 0.914451 0.215940
v -0.524912 0.915917 0.212460
v -0.524791 0.915711 0.214321
v -0.524576 0.915071 0.215970
v -0.523260 0.916749 0.212460
v -0.523035 0.916508 0.214341
v -0.522645 0.915991 0.215995
v -0.523085 0.910294 0.218400
v -0.519780 0.911958 0.218400
v -0.526740 0.911488 0.218083
v -0.523686 0.912326 0.217918
v -0.520955 0.913669 0.217905
v -0.526740 0.913140 0.217251
v -0.524213 0.913953 0.217178
v -0.521960 0.915069 0.217183
v -0.516688 0.921540 0.218083
v -0.518340 0.921540 0.217251
v -0.515494 0.917885 0.218400
v -0.517586 0.918507 0.217943
v -0.519159 0.919013 0.217194
v -0.517158 0.914580 0.218400
v -0.518901 0.915767 0.217905
v -0.520269 0.916760 0.217183
v -0.514860 0.960060 0.218400
v -0.526740 0.971940 0.218400
v -0.526740 0.966000 0.212460
v -0.520800 0.960060 0.212460
v -0.515494 0.963715 0.218400
v -0.517158 0.967020 0.218400
v -0.516688 0.960060 0.218083
v -0.517526 0.963114 0.217918
v -0.518869 0.965845 0.217905
v -0.518340 0.960060 0.217251
v -0.519153 0.962587 0.217178
v -0.520269 0.964840 0.217183
v -0.526740 0.970112 0.218083
v -0.526740 0.968460 0.217251
v -0.523085 0.971306 0.218400
v -0.523707 0.969213 0.217943
v -0.524213 0.967641 0.217194
v -0.519780 0.969642 0.218400
v -0.520967 0.967899 0.217905
v -0.521960 0.966531 0.217183
v -0.524912 0.965683 0.212460
v -0.523260 0.964851 0.212460
v -0.526740 0.966317 0.214288
v -0.524781 0.965938 0.214310
v -0.523029 0.965108 0.214341
v -0.526740 0.967149 0.215940
v -0.524576 0.966545 0.215964
v -0.522645 0.965609 0.215995
v -0.520483 0.960060 0.214288
v -0.519651 0.960060 0.215940
v -0.521117 0.961887 0.212460
v -0.520911 0.962009 0.214321
v -0.520271 0.962224 0.215970
v -0.521949 0.963540 0.212460
v -0.521708 0.963765 0.214341
v -0.521191 0.964155 0.215995
v -0.633479 0.971940 0.207540
v -0.627540 0.977879 0.207540
v -0.627540 0.971940 0.201600
v -0.633189 0.973775 0.207540
v -0.632345 0.975430 0.207540
v -0.633189 0.971940 0.205704
v -0.632844 0.973835 0.205655
v -0.632048 0.975350 0.205717
v -0.632345 0.971940 0.204049
v -0.632044 0.973767 0.204126
v -0.631480 0.975083 0.204397
v -0.627540 0.977589 0.205704
v -0.627540 0.976745 0.204049
v -0.629375 0.977589 0.207540
v -0.629424 0.977244 0.205645
v -0.629363 0.976448 0.204129
v -0.631030 0.976745 0.207540
v -0.630953 0.976444 0.205712
v -0.630682 0.975880 0.204397
v -0.629375 0.971940 0.201891
v -0.631030 0.971940 0.202734
v -0.627540 0.973775 0.201891
v -0.629435 0.973824 0.202235
v -0.630950 0.973763 0.203031
v -0.627540 0.975430 0.202734
v -0.629367 0.975353 0.203035
v -0.630682 0.975082 0.203599
v -0.627540 0.909660 0.201600
v -0.627540 0.903721 0.207540
v -0.633479 0.909660 0.207540
v -0.627540 0.907833 0.201917
v -0.627540 0.906180 0.202749
v -0.629367 0.909660 0.201917
v -0.629332 0.907858 0.202427
v -0.629308 0.906297 0.203073
v -0.631020 0.909660 0.202749
v -0.630897 0.907891 0.203089
v -0.630710 0.906489 0.203540
v -0.629367 0.904037 0.207540
v -0.631020 0.904869 0.207540
v -0.627540 0.904037 0.205712
v -0.629342 0.904547 0.205748
v -0.630903 0.905194 0.205771
v -0.627540 0.904869 0.204060
v -0.629308 0.905210 0.204182
v -0.630710 0.905661 0.204369
v -0.633162 0.909660 0.205712
v -0.632331 0.909660 0.204060
v -0.633162 0.907833 0.207540
v -0.632653 0.907868 0.205737
v -0.632006 0.907891 0.204176
v -0.632331 0.906180 0.207540
v -0.631990 0.906303 0.205771
v -0.631539 0.906489 0.204369
v -0.508921 0.909660 0.207540
v -0.514860 0.903721 0.207540
v -0.514860 0.909660 0.201600
v -0.509211 0.907824 0.207540
v -0.510055 0.906169 0.207540
v -0.509211 0.909660 0.205704
v -0.509556 0.907765 0.205655
v -0.510352 0.906250 0.205717
v -0.510055 0.909660 0.204049
v -0.510356 0.907832 0.204126
v -0.510920 0.906517 0.204397
v -0.514860 0.904011 0.205704
v -0.514860 0.904854 0.204049
v -0.513024 0.904011 0.207540
v -0.512976 0.904356 0.205645
v -0.513037 0.905152 0.204129
v -0.511370 0.904854 0.207540
v -0.511447 0.905156 0.205712
v -0.511717 0.905720 0.204397
v -0.513024 0.909660 0.201891
v -0.511370 0.909660 0.202734
v -0.514860 0.907824 0.201891
v -0.512965 0.907776 0.202235
v -0.511450 0.907837 0.203031
v -0.514860 0.906169 0.202734
v -0.513033 0.906247 0.203035
v -0.511717 0.906517 0.203599
v -0.514860 0.971940 0.201600
v -0.514860 0.977879 0.207540
v -0.508921 0.971940 0.207540
v -0.514860 0.973767 0.201917
v -0.514860 0.975420 0.202749
v -0.513033 0.971940 0.201917
v -0.513068 0.973742 0.202427
v -0.513091 0.975303 0.203073
v -0.511380 0.971940 0.202749
v -0.511503 0.973709 0.203089
v -0.511689 0.975111 0.203540
v -0.513033 0.977562 0.207540
v -0.511380 0.976731 0.207540
v -0.514860 0.977562 0.205712
v -0.513058 0.977053 0.205748
v -0.511497 0.976406 0.205771
v -0.514860 0.976731 0.204060
v -0.513091 0.976390 0.204182
v -0.511689 0.975939 0.204369
v -0.509238 0.971940 0.205712
v -0.510069 0.971940 0.204060
v -0.509238 0.973767 0.207540
v -0.509747 0.973731 0.205737
v -0.510394 0.973709 0.204176
v -0.510069 0.975419 0.207540
v -0.510410 0.975297 0.205771
v -0.510861 0.975110 0.204369
v -0.627540 0.971940 0.218400
v -0.627540 0.977879 0.212460
v -0.633479 0.971940 0.212460
v -0.627540 0.973767 0.218083
v -0.627540 0.975420 0.217251
v -0.629367 0.971940 0.218083
v -0.629332 0.973742 0.217573
v -0.629308 0.975303 0.216927
v -0.631020 0.971940 0.217251
v -0.630897 0.973709 0.216911
v -0.630710 0.975110 0.216460
v -0.629367 0.977562 0.212460
v -0.631020 0.976731 0.212460
v -0.627540 0.977562 0.214288
v -0.629342 0.977053 0.214252
v -0.630903 0.976406 0.214229
v -0.627540 0.976731 0.215940
v -0.629308 0.976390 0.215818
v -0.630710 0.975939 0.215631
v -0.633162 0.971940 0.214288
v -0.632331 0.971940 0.215940
v -0.633162 0.973767 0.212460
v -0.632653 0.973731 0.214262
v -0.632006 0.973709 0.215823
v -0.632331 0.975420 0.212460
v -0.631990 0.975297 0.214229
v -0.631539 0.975110 0.215631
v -0.633479 0.909660 0.212460
v -0.627540 0.903721 0.212460
v -0.627540 0.909660 0.218400
v -0.633189 0.907824 0.212460
v -0.632345 0.906169 0.212460
v -0.633189 0.909660 0.214296
v -0.632844 0.907765 0.214345
v -0.632048 0.906250 0.214283
v -0.632345 0.909660 0.215951
v -0.632044 0.907832 0.215873
v -0.631480 0.906517 0.215603
v -0.627540 0.904011 0.214296
v -0.627540 0.904854 0.215951
v -0.629375 0.904011 0.212460
v -0.629424 0.904356 0.214355
v -0.629363 0.905152 0.215870
v -0.631030 0.904854 0.212460
v -0.630953 0.905156 0.214288
v -0.630682 0.905720 0.215603
v -0.629375 0.909660 0.218109
v -0.631030 0.909660 0.217266
v -0.627540 0.907824 0.218109
v -0.629435 0.907776 0.217765
v -0.630950 0.907837 0.216969
v -0.627540 0.906169 0.217266
v -0.629367 0.906247 0.216965
v -0.630682 0.906517 0.216400
v -0.514860 0.909660 0.218400
v -0.514860 0.903721 0.212460
v -0.508921 0.909660 0.212460
v -0.514860 0.907833 0.218083
v -0.514860 0.906180 0.217251
v -0.513033 0.909660 0.218083
v -0.513068 0.907858 0.217573
v -0.513092 0.906297 0.216927
v -0.511380 0.909660 0.217251
v -0.511503 0.907891 0.216911
v -0.511689 0.906489 0.216460
v -0.513033 0.904037 0.212460
v -0.511380 0.904869 0.212460
v -0.514860 0.904037 0.214288
v -0.513058 0.904547 0.214252
v -0.511497 0.905194 0.214229
v -0.514860 0.904869 0.215940
v -0.513091 0.905210 0.215818
v -0.511689 0.905661 0.215631
v -0.509238 0.909660 0.214288
v -0.510069 0.909660 0.215940
v -0.509238 0.907833 0.212460
v -0.509747 0.907868 0.214262
v -0.510394 0.907891 0.215823
v -0.510069 0.906180 0.212460
v -0.510410 0.906303 0.214229
v -0.510861 0.906489 0.215631
v -0.508921 0.971940 0.212460
v -0.514860 0.977879 0.212460
v -0.514860 0.971940 0.218400
v -0.509211 0.973775 0.212460
v -0.510055 0.975430 0.212460
v -0.509211 0.971940 0.214296
v -0.509556 0.973835 0.214345
v -0.510352 0.975350 0.214283
v -0.510055 0.971940 0.215951
v -0.510356 0.973767 0.215873
v -0.510920 0.975083 0.215603
v -0.514860 0.977589 0.214296
v -0.514860 0.976745 0.215951
v -0.513024 0.977589 0.212460
v -0.512976 0.977244 0.214355
v -0.513037 0.976448 0.215870
v -0.511370 0.976745 0.212460
v -0.511447 0.976444 0.214288
v -0.511717 0.975880 0.215603
v -0.513024 0.971940 0.218109
v -0.511370 0.971940 0.217266
v -0.514860 0.973775 0.218109
v -0.512965 0.973824 0.217765
v -0.511450 0.973763 0.216969
v -0.514860 0.975430 0.217266
v -0.513033 0.975353 0.216965
v -0.511717 0.975082 0.216400
vn -0.0000 -0.0000 -1.0000
vn -0.0000 -0.0000 1.0000
vn 1.0000 -0.0000 -0.0000
vn -0.0000 1.0000 -0.0000
vn -0.0000 -1.0000 -0.0000
vn -1.0000 -0.0000 -0.0000
vn 0.9711 0.1793 -0.1575
vn 0.8859 0.4340 -0.1637
vn 0.6932 0.6989 -0.1764
vn 0.8902 0.2166 -0.4007
vn 0.8408 0.4091 -0.3546
vn 0.6576 0.6628 -0.3580
vn 0.1928 0.9706 -0.1438
vn 0.2312 0.8829 -0.4088
vn 0.2044 0.6899 -0.6944
vn 0.4271 0.8924 -0.1459
vn 0.3961 0.8414 -0.3676
vn 0.3200 0.6479 -0.6912
vn 0.0197 0.1997 -0.9797
vn 0.1006 0.2062 -0.9733
vn 0.1662 0.1647 -0.9722
vn 0.0856 0.4193 -0.9038
vn 0.1738 0.3556 -0.9183
vn 0.2802 0.2770 -0.9191
vn 0.1902 0.0230 -0.9815
vn 0.4252 0.0995 -0.8996
vn 0.6956 0.2061 -0.6883
vn 0.1989 0.0919 -0.9757
vn 0.3699 0.1706 -0.9133
vn 0.6534 0.3226 -0.6849
vn 0.5111 0.5111 -0.6910
vn -0.1997 0.0197 -0.9797
vn -0.2062 0.1006 -0.9733
vn -0.1647 0.1662 -0.9722
vn -0.4193 0.0856 -0.9038
vn -0.3556 0.1738 -0.9183
vn -0.2770 0.2802 -0.9191
vn -0.0230 0.1902 -0.9815
vn -0.0995 0.4252 -0.8996
vn -0.2061 0.6956 -0.6882
vn -0.0918 0.1988 -0.9757
vn -0.1706 0.3699 -0.9133
vn -0.3225 0.6534 -0.6848
vn -0.1793 0.9711 -0.1575
vn -0.4340 0.8859 -0.1637
vn -0.6989 0.6931 -0.1764
vn -0.2166 0.8902 -0.4007
vn -0.4091 0.8408 -0.3546
vn -0.6628 0.6577 -0.3580
vn -0.9706 0.1928 -0.1439
vn -0.8829 0.2312 -0.4088
vn -0.6899 0.2044 -0.6945
vn -0.8923 0.4271 -0.1460
vn -0.8414 0.3961 -0.3676
vn -0.6479 0.3200 -0.6912
vn -0.5111 0.5111 -0.6911
vn 0.1997 -0.0198 -0.9797
vn 0.2062 -0.1006 -0.9733
vn 0.1647 -0.1662 -0.9722
vn 0.4193 -0.0856 -0.9038
vn 0.3556 -0.1738 -0.9183
vn 0.2770 -0.2802 -0.9191
vn 0.0230 -0.1902 -0.9815
vn 0.0995 -0.4252 -0.8996
vn 0.2061 -0.6956 -0.6883
vn 0.0919 -0.1988 -0.9757
vn 0.1705 -0.3699 -0.9133
vn 0.3225 -0.6534 -0.6849
vn 0.1793 -0.9711 -0.1575
vn 0.4340 -0.8859 -0.1637
vn 0.6989 -0.6931 -0.1764
vn 0.2166 -0.8902 -0.4007
vn 0.4091 -0.8408 -0.3546
vn 0.6628 -0.6577 -0.3580
vn 0.9706 -0.1928 -0.1439
vn 0.8829 -0.2312 -0.4088
vn 0.6899 -0.2043 -0.6944
vn 0.8923 -0.4271 -0.1460
vn 0.8414 -0.3961 -0.3676
vn 0.6479 -0.3200 -0.6912
vn 0.5111 -0.5111 -0.6910
vn -0.9711 -0.1793 -0.1575
vn -0.8859 -0.4340 -0.1637
vn -0.6932 -0.6989 -0.1764
vn -0.8902 -0.2167 -0.4007
vn -0.8408 -0.4090 -0.3546
vn -0.6577 -0.6628 -0.3580
vn -0.1928 -0.9706 -0.1438
vn -0.2312 -0.8829 -0.4088
vn -0.2044 -0.6899 -0.6944
vn -0.4271 -0.8923 -0.1460
vn -0.3961 -0.8414 -0.3676
vn -0.3200 -0.6479 -0.6912
vn -0.0198 -0.1997 -0.9797
vn -0.1006 -0.2062 -0.9733
vn -0.1662 -0.1647 -0.9722
vn -0.0856 -0.4193 -0.9038
vn -0.1738 -0.3556 -0.9183
vn -0.2802 -0.2770 -0.9191
vn -0.1902 -0.0230 -0.9815
vn -0.4252 -0.0995 -0.8996
vn -0.6956 -0.2062 -0.6882
vn -0.1989 -0.0919 -0.9757
vn -0.3699 -0.1705 -0.9133
vn -0.6534 -0.3225 -0.6849
vn -0.5111 -0.5111 -0.6910
vn 0.9711 -0.1793 0.1575
vn 0.8859 -0.4340 0.1637
vn 0.6931 -0.6989 0.1764
vn 0.8902 -0.2166 0.4007
vn 0.8408 -0.4091 0.3546
vn 0.6577 -0.6628 0.3580
vn 0.1928 -0.9706 0.1438
vn 0.2312 -0.8829 0.4088
vn 0.2044 -0.6899 0.6945
vn 0.4271 -0.8923 0.1460
vn 0.3961 -0.8414 0.3676
vn 0.3200 -0.6479 0.6912
vn 0.0197 -0.1997 0.9797
vn 0.1006 -0.2062 0.9733
vn 0.1662 -0.1647 0.9722
vn 0.0856 -0.4193 0.9038
vn 0.1738 -0.3556 0.9183
vn 0.2802 -0.2770 0.9191
vn 0.1901 -0.0230 0.9815
vn 0.4252 -0.0995 0.8996
vn 0.6956 -0.2061 0.6883
vn 0.1989 -0.0918 0.9757
vn 0.3699 -0.1705 0.9133
vn 0.6534 -0.3225 0.6849
vn 0.5111 -0.5111 0.6911
vn 0.1997 0.0197 0.9797
vn 0.2062 0.1006 0.9733
vn 0.1647 0.1662 0.9722
vn 0.4193 0.0856 0.9038
vn 0.3556 0.1738 0.9183
vn 0.2770 0.2802 0.9191
vn 0.0230 0.1901 0.9815
vn 0.0995 0.4252 0.8996
vn 0.2061 0.6956 0.6883
vn 0.0918 0.1988 0.9757
vn 0.1705 0.3699 0.9133
vn 0.3225 0.6534 0.6849
vn 0.1793 0.9711 0.1575
vn 0.4340 0.8859 0.1637
vn 0.6989 0.6932 0.1764
vn 0.2166 0.8902 0.4007
vn 0.4091 0.8408 0.3546
vn 0.6628 0.6577 0.3580
vn 0.9706 0.1928 0.1439
vn 0.8829 0.2312 0.4088
vn 0.6899 0.2043 0.6945
vn 0.8923 0.4271 0.1460
vn 0.8414 0.3961 0.3676
vn 0.6479 0.3200 0.6912
vn 0.5111 0.5111 0.6911
vn -0.9711 0.1793 0.1575
vn -0.8859 0.4340 0.1638
vn -0.6932 0.6988 0.1764
vn -0.8902 0.2166 0.4007
vn -0.8408 0.4091 0.3546
vn -0.6577 0.6628 0.3580
vn -0.1928 0.9706 0.1438
vn -0.2312 0.8829 0.4088
vn -0.2043 0.6899 0.6944
vn -0.4271 0.8923 0.1460
vn -0.3961 0.8414 0.3676
vn -0.3200 0.6479 0.6912
vn -0.0197 0.1997 0.9797
vn -0.1006 0.2062 0.9733
vn -0.1662 0.1647 0.9722
vn -0.0856 0.4194 0.9038
vn -0.1738 0.3556 0.9183
vn -0.2802 0.2770 0.9191
vn -0.1901 0.0230 0.9815
vn -0.4252 0.0995 0.8996
vn -0.6956 0.2062 0.6882
vn -0.1989 0.0918 0.9757
vn -0.3699 0.1705 0.9133
vn -0.6534 0.3225 0.6849
vn -0.5111 0.5111 0.6910
vn -0.1997 -0.0197 0.9797
vn -0.2062 -0.1006 0.9733
vn -0.1647 -0.1662 0.9722
vn -0.4193 -0.0856 0.9038
vn -0.3556 -0.1738 0.9183
vn -0.2770 -0.2802 0.9191
vn -0.0230 -0.1901 0.9815
vn -0.0995 -0.4252 0.8996
vn -0.2061 -0.6956 0.6882
vn -0.0918 -0.1989 0.9757
vn -0.1705 -0.3699 0.9133
vn -0.3226 -0.6534 0.6849
vn -0.1793 -0.9711 0.1575
vn -0.4340 -0.8859 0.1637
vn -0.6989 -0.6931 0.1764
vn -0.2166 -0.8902 0.4008
vn -0.4091 -0.8408 0.3546
vn -0.6628 -0.6577 0.3580
vn -0.9706 -0.1928 0.1439
vn -0.8829 -0.2312 0.4088
vn -0.6899 -0.2044 0.6945
vn -0.8923 -0.4271 0.1460
vn -0.8414 -0.3961 0.3676
vn -0.6479 -0.3200 0.6912
vn -0.5111 -0.5111 0.6911
vn -0.9729 0.1635 -0.1635
vn -0.8764 0.4562 -0.1543
vn -0.6996 0.6997 -0.1450
vn -0.8765 0.1556 -0.4557
vn -0.7924 0.4314 -0.4313
vn -0.6455 0.6450 -0.4090
vn -0.1635 0.9729 -0.1635
vn -0.1543 0.8764 -0.4561
vn -0.1449 0.6996 -0.6997
vn -0.4557 0.8764 -0.1556
vn -0.4314 0.7924 -0.4313
vn -0.4091 0.6455 -0.6449
vn -0.1635 0.1635 -0.9729
vn -0.4562 0.1543 -0.8764
vn -0.6997 0.1450 -0.6996
vn -0.1556 0.4557 -0.8764
vn -0.4314 0.4313 -0.7924
vn -0.6450 0.4090 -0.6456
vn -0.5773 0.5774 -0.5774
vn -0.2188 -0.2187 -0.9509
vn -0.2236 -0.4087 -0.8849
vn -0.1779 -0.6990 -0.6927
vn -0.4120 -0.2282 -0.8822
vn -0.3565 -0.3466 -0.8676
vn -0.3108 -0.6759 -0.6683
vn -0.2187 -0.9510 -0.2187
vn -0.4087 -0.8849 -0.2236
vn -0.6989 -0.6927 -0.1779
vn -0.2282 -0.8821 -0.4120
vn -0.3466 -0.8676 -0.3565
vn -0.6758 -0.6683 -0.3107
vn -0.9510 -0.2187 -0.2187
vn -0.8849 -0.2236 -0.4087
vn -0.6927 -0.1778 -0.6990
vn -0.8821 -0.4120 -0.2282
vn -0.8676 -0.3565 -0.3466
vn -0.6683 -0.3107 -0.6759
vn -0.5773 -0.5773 -0.5774
vn 0.9729 -0.1635 -0.1635
vn 0.8764 -0.4562 -0.1543
vn 0.6996 -0.6997 -0.1450
vn 0.8764 -0.1556 -0.4557
vn 0.7924 -0.4314 -0.4313
vn 0.6456 -0.6450 -0.4090
vn 0.1635 -0.9729 -0.1635
vn 0.1543 -0.8764 -0.4562
vn 0.1450 -0.6996 -0.6997
vn 0.4557 -0.8764 -0.1556
vn 0.4314 -0.7924 -0.4314
vn 0.4090 -0.6456 -0.6450
vn 0.1635 -0.1635 -0.9729
vn 0.4561 -0.1543 -0.8764
vn 0.6997 -0.1450 -0.6996
vn 0.1556 -0.4557 -0.8765
vn 0.4313 -0.4314 -0.7924
vn 0.6449 -0.4090 -0.6456
vn 0.5773 -0.5774 -0.5774
vn 0.2187 0.2188 -0.9509
vn 0.2236 0.4087 -0.8849
vn 0.1779 0.6990 -0.6927
vn 0.4120 0.2282 -0.8821
vn 0.3565 0.3465 -0.8676
vn 0.3108 0.6759 -0.6683
vn 0.2187 0.9509 -0.2188
vn 0.4087 0.8849 -0.2236
vn 0.6990 0.6927 -0.1778
vn 0.2282 0.8821 -0.4120
vn 0.3466 0.8676 -0.3565
vn 0.6759 0.6683 -0.3108
vn 0.9509 0.2188 -0.2188
vn 0.8849 0.2236 -0.4087
vn 0.6927 0.1779 -0.6990
vn 0.8821 0.4120 -0.2283
vn 0.8676 0.3565 -0.3466
vn 0.6683 0.3107 -0.6759
vn 0.5773 0.5774 -0.5774
vn -0.2187 0.2187 0.9509
vn -0.2236 0.4087 0.8849
vn -0.1779 0.6990 0.6927
vn -0.4120 0.2283 0.8821
vn -0.3565 0.3466 0.8676
vn -0.3107 0.6759 0.6683
vn -0.2187 0.9509 0.2188
vn -0.4087 0.8848 0.2236
vn -0.6989 0.6927 0.1779
vn -0.2283 0.8821 0.4120
vn -0.3466 0.8676 0.3565
vn -0.6759 0.6683 0.3107
vn -0.9510 0.2188 0.2187
vn -0.8849 0.2236 0.4087
vn -0.6927 0.1778 0.6990
vn -0.8821 0.4120 0.2283
vn -0.8676 0.3565 0.3465
vn -0.6683 0.3107 0.6759
vn -0.5773 0.5774 0.5774
vn -0.9729 -0.1635 0.1635
vn -0.8764 -0.4562 0.1543
vn -0.6996 -0.6997 0.1450
vn -0.8764 -0.1556 0.4557
vn -0.7924 -0.4313 0.4313
vn -0.6456 -0.6449 0.4090
vn -0.1635 -0.9729 0.1635
vn -0.1543 -0.8764 0.4562
vn -0.1450 -0.6996 0.6997
vn -0.4557 -0.8764 0.1556
vn -0.4314 -0.7924 0.4313
vn -0.4090 -0.6456 0.6449
vn -0.1635 -0.1635 0.9729
vn -0.4561 -0.1543 0.8764
vn -0.6997 -0.1450 0.6996
vn -0.1556 -0.4557 0.8764
vn -0.4313 -0.4314 0.7924
vn -0.6449 -0.4090 0.6456
vn -0.5773 -0.5773 0.5774
vn 0.2187 -0.2187 0.9510
vn 0.2236 -0.4087 0.8849
vn 0.1779 -0.6989 0.6927
vn 0.4120 -0.2282 0.8821
vn 0.3565 -0.3466 0.8676
vn 0.3107 -0.6758 0.6684
vn 0.2188 -0.9510 0.2187
vn 0.4087 -0.8849 0.2236
vn 0.6989 -0.6927 0.1778
vn 0.2282 -0.8822 0.4120
vn 0.3466 -0.8676 0.3565
vn 0.6759 -0.6683 0.3107
vn 0.9509 -0.2187 0.2188
vn 0.8849 -0.2236 0.4087
vn 0.6927 -0.1778 0.6990
vn 0.8822 -0.4120 0.2282
vn 0.8676 -0.3565 0.3466
vn 0.6683 -0.3107 0.6759
vn 0.5773 -0.5774 0.5774
vn 0.9729 0.1635 0.1635
vn 0.8764 0.4561 0.1543
vn 0.6996 0.6997 0.1450
vn 0.8764 0.1556 0.4557
vn 0.7924 0.4313 0.4313
vn 0.6455 0.6450 0.4090
vn 0.1635 0.9729 0.1635
vn 0.1543 0.8764 0.4561
vn 0.1449 0.6996 0.6997
vn 0.4557 0.8764 0.1556
vn 0.4314 0.7924 0.4313
vn 0.4091 0.6455 0.6450
vn 0.1635 0.1635 0.9729
vn 0.4561 0.1543 0.8764
vn 0.6997 0.1450 0.6996
vn 0.1556 0.4557 0.8765
vn 0.4314 0.4314 0.7924
vn 0.6450 0.4090 0.6456
vn 0.5773 0.5774 0.5774
vn 0.9853 -0.0000 -0.1709
vn 0.8932 -0.0000 -0.4496
vn 0.7071 -0.0000 -0.7071
vn 0.4496 -0.0000 -0.8932
vn 0.1709 -0.0000 -0.9853
vn -0.9853 -0.0000 -0.1709
vn -0.8932 -0.0000 -0.4496
vn -0.7071 -0.0000 -0.7071
vn -0.4496 -0.0000 -0.8932
vn -0.1709 -0.0000 -0.9853
vn -0.0000 0.9853 -0.1709
vn -0.0000 0.8932 -0.4496
vn -0.0000 0.7071 -0.7071
vn -0.0000 0.4496 -0.8932
vn -0.0000 0.1709 -0.9853
vn -0.0000 -0.1709 -0.9853
vn -0.0000 -0.4496 -0.8932
vn -0.0000 -0.7071 -0.7071
vn -0.0000 -0.8932 -0.4496
vn -0.0000 -0.9853 -0.1709
vn 0.1709 -0.0000 0.9853
vn 0.4496 -0.0000 0.8932
vn 0.7071 -0.0000 0.7071
vn 0.8932 -0.0000 0.4496
vn 0.9853 -0.0000 0.1709
vn -0.1709 -0.0000 0.9853
vn -0.4496 -0.0000 0.8932
vn -0.7071 -0.0000 0.7071
vn -0.8932 -0.0000 0.4496
vn -0.9853 -0.0000 0.1709
vn -0.0000 0.1709 0.9853
vn -0.0000 0.4496 0.8932
vn -0.0000 0.7071 0.7071
vn -0.0000 0.8932 0.4496
vn -0.0000 0.9853 0.1709
vn -0.0000 -0.9853 0.1709
vn -0.0000 -0.8932 0.4496
vn -0.0000 -0.7071 0.7071
vn -0.0000 -0.4496 0.8932
vn -0.0000 -0.1709 0.9853
vn -0.1709 0.9853 -0.0000
vn -0.4496 0.8932 -0.0000
vn -0.7071 0.7071 -0.0000
vn -0.8932 0.4496 -0.0000
vn -0.9853 0.1709 -0.0000
vn 0.1709 0.9853 -0.0000
vn 0.4496 0.8932 -0.0000
vn 0.7071 0.7071 -0.0000
vn 0.8932 0.4496 -0.0000
vn 0.9853 0.1709 -0.0000
vn 0.9853 -0.1709 -0.0000
vn 0.8932 -0.4496 -0.0000
vn 0.7071 -0.7071 -0.0000
vn 0.4496 -0.8932 -0.0000
vn 0.1709 -0.9853 -0.0000
vn -0.1709 -0.9853 -0.0000
vn -0.4496 -0.8932 -0.0000
vn -0.7071 -0.7071 -0.0000
vn -0.8932 -0.4496 -0.0000
vn -0.9853 -0.1709 -0.0000
vn -0.1637 -0.0002 -0.9865
vn -0.4518 -0.0004 -0.8921
vn -0.7071 -0.0003 -0.7071
vn -0.8921 -0.0004 -0.4518
vn -0.9865 -0.0002 -0.1637
vn 0.1637 0.0002 -0.9865
vn 0.4518 0.0004 -0.8921
vn 0.7071 0.0003 -0.7071
vn 0.8921 0.0004 -0.4518
vn 0.9865 0.0002 -0.1637
vn -0.0001 -0.1637 -0.9865
vn -0.0002 -0.4518 -0.8921
vn -0.0002 -0.7071 -0.7071
vn -0.0002 -0.8921 -0.4518
vn -0.0001 -0.9865 -0.1636
vn 0.0001 0.9865 -0.1637
vn 0.0002 0.8921 -0.4518
vn 0.0002 0.7071 -0.7071
vn 0.0002 0.4518 -0.8921
vn 0.0001 0.1637 -0.9865
vn -0.9865 0.0002 0.1637
vn -0.8921 0.0004 0.4518
vn -0.7071 0.0003 0.7071
vn -0.4518 0.0004 0.8921
vn -0.1637 0.0002 0.9865
vn 0.9865 -0.0002 0.1637
vn 0.8921 -0.0004 0.4518
vn 0.7071 -0.0003 0.7071
vn 0.4518 -0.0004 0.8921
vn 0.1637 -0.0002 0.9865
vn 0.0001 -0.9865 0.1636
vn 0.0002 -0.8921 0.4518
vn 0.0002 -0.7071 0.7071
vn 0.0002 -0.4518 0.8921
vn 0.0001 -0.1637 0.9865
vn -0.0001 0.1637 0.9865
vn -0.0002 0.4518 0.8921
vn -0.0002 0.7071 0.7071
vn -0.0002 0.8921 0.4518
vn -0.0001 0.9865 0.1637
vn 0.9865 -0.1637 0.0028
vn 0.8921 -0.4518 0.0046
vn 0.7071 -0.7071 0.0037
vn 0.4518 -0.8921 0.0046
vn 0.1636 -0.9865 0.0028
vn -0.9865 -0.1637 -0.0028
vn -0.8921 -0.4518 -0.0046
vn -0.7071 -0.7071 -0.0037
vn -0.4518 -0.8921 -0.0046
vn -0.1636 -0.9865 -0.0028
vn -0.1637 0.9865 0.0028
vn -0.4518 0.8921 0.0046
vn -0.7071 0.7071 0.0037
vn -0.8921 0.4518 0.0046
vn -0.9865 0.1637 0.0028
vn 0.9865 0.1637 -0.0028
vn 0.8921 0.4518 -0.0046
vn 0.7071 0.7071 -0.0037
vn 0.4518 0.8921 -0.0046
vn 0.1637 0.9865 -0.0028
vt 0.625000 0.500000
vt 0.625000 0.500000
vt 0.625000 0.500000
vt 0.625000 0.500000
vt 0.625000 0.500000
vt 0.625000 0.500000
vt 0.625000 0.500000
vt 0.625000 0.500000
vt 0.625000 0.500000
vt 0.625000 0.500000
vt 0.625000 0.500000
vt 0.625000 0.500000
vt 0.625000 0.500000
vt 0.625000 0.500000
vt 0.625000 0.500000
vt 0.625000 0.500000
vt 0.625000 0.500000
vt 0.625000 0.500000
vt 0.625000 0.500000
vt 0.625000 0.500000
vt 0.625000 0.500000
vt 0.625000 0.500000
vt 0.625000 0.500000
vt 0.625000 0.500000
vt 0.625000 0.500000
vt 0.625000 0.500000
vt 0.625000 0.500000
vt 0.625000 0.500000
vt 0.625000 0.500000
vt 0.625000 0.500000
vt 0.625000 0.500000
vt 0.625000 0.500000
vt 0.625000 0.500000
vt 0.625000 0.500000
vt 0.625000 0.500000
vt 0.625000 0.500000
vt 0.625000 0.500000
vt 0.625000 0.500000
vt 0.625000 0.500000
vt 0.625000 0.500000
vt 0.625000 0.500000
vt 0.625000 0.500000
vt 0.625000 0.500000
vt 0.625000 0.500000
vt 0.625000 0.500000
vt 0.625000 0.500000
vt 0.625000 0.500000
vt 0.625000 0.500000
vt 0.625000 0.500000
vt 0.625000 0.500000
vt 0.625000 0.500000
vt 0.625000 0.500000
vt 0.625000 0.500000
vt 0.625000 0.500000
vt 0.625000 0.500000
vt 0.625000 0.500000
vt 0.625000 0.500000
vt 0.625000 0.500000
vt 0.625000 0.500000
vt 0.625000 0.500000
vt 0.625000 0.500000
vt 0.625000 0.500000
vt 0.625000 0.500000
vt 0.625000 0.500000
vt 0.625000 0.500000
vt 0.625000 0.500000
vt 0.625000 0.500000
vt 0.625000 0.500000
vt 0.625000 0.500000
vt 0.625000 0.500000
vt 0.625000 0.500000
vt 0.625000 0.500000
vt 0.625000 0.500000
vt 0.625000 0.500000
vt 0.625000 0.500000
vt 0.625000 0.500000
vt 0.625000 0.500000
vt 0.625000 0.500000
vt 0.625000 0.500000
vt 0.625000 0.500000
vt 0.625000 0.500000
vt 0.625000 0.500000
vt 0.625000 0.500000
vt 0.625000 0.500000
vt 0.625000 0.500000
vt 0.625000 0.500000
vt 0.625000 0.500000
vt 0.625000 0.500000
vt 0.625000 0.500000
vt 0.625000 0.500000
vt 0.625000 0.500000
vt 0.625000 0.500000
vt 0.625000 0.500000
vt 0.625000 0.500000
vt 0.625000 0.500000
vt 0.625000 0.500000
vt 0.625000 0.500000
vt 0.625000 0.500000
vt 0.625000 0.500000
vt 0.625000 0.500000
vt 0.625000 0.500000
vt 0.625000 0.500000
vt 0.625000 0.500000
vt 0.625000 0.500000
vt 0.625000 0.500000
vt 0.625000 0.500000
vt 0.625000 0.500000
vt 0.625000 0.500000
vt 0.625000 0.500000
vt 0.625000 0.500000
vt 0.625000 0.500000
vt 0.625000 0.500000
vt 0.625000 0.500000
vt 0.625000 0.500000
vt 0.625000 0.500000
vt 0.625000 0.500000
vt 0.625000 0.500000
vt 0.625000 0.500000
vt 0.625000 0.500000
vt 0.625000 0.500000
vt 0.625000 0.500000
vt 0.625000 0.500000
vt 0.625000 0.500000
vt 0.625000 0.500000
vt 0.625000 0.500000
vt 0.625000 0.500000
vt 0.625000 0.500000
vt 0.625000 0.500000
vt 0.625000 0.500000
vt 0.625000 0.500000
vt 0.625000 0.500000
vt 0.625000 0.500000
vt 0.625000 0.500000
vt 0.625000 0.500000
vt 0.625000 0.500000
vt 0.625000 0.500000
vt 0.625000 0.500000
vt 0.625000 0.500000
vt 0.625000 0.500000
vt 0.625000 0.500000
vt 0.625000 0.500000
vt 0.625000 0.500000
vt 0.625000 0.500000
vt 0.625000 0.500000
vt 0.625000 0.500000
vt 0.625000 0.500000
vt 0.625000 0.500000
vt 0.625000 0.500000
vt 0.625000 0.500000
vt 0.625000 0.500000
vt 0.625000 0.500000
vt 0.625000 0.500000
vt 0.625000 0.500000
vt 0.625000 0.500000
vt 0.625000 0.500000
vt 0.625000 0.500000
vt 0.625000 0.500000
vt 0.625000 0.500000
vt 0.625000 0.500000
vt 0.625000 0.500000
vt 0.625000 0.500000
vt 0.625000 0.500000
vt 0.625000 0.500000
vt 0.625000 0.500000
vt 0.625000 0.500000
vt 0.625000 0.500000
vt 0.625000 0.500000
vt 0.625000 0.500000
vt 0.625000 0.500000
vt 0.625000 0.500000
vt 0.625000 0.500000
vt 0.625000 0.500000
vt 0.625000 0.500000
vt 0.625000 0.500000
vt 0.625000 0.500000
vt 0.625000 0.500000
vt 0.625000 0.500000
vt 0.625000 0.500000
vt 0.625000 0.500000
vt 0.625000 0.500000
vt 0.625000 0.500000
vt 0.625000 0.500000
vt 0.625000 0.500000
vt 0.625000 0.500000
vt 0.625000 0.500000
vt 0.625000 0.500000
vt 0.625000 0.500000
vt 0.625000 0.500000
vt 0.625000 0.500000
vt 0.625000 0.500000
vt 0.625000 0.500000
vt 0.625000 0.500000
vt 0.625000 0.500000
vt 0.625000 0.500000
vt 0.625000 0.500000
vt 0.625000 0.500000
vt 0.625000 0.500000
vt 0.625000 0.500000
vt 0.625000 0.500000
vt 0.625000 0.500000
vt 0.625000 0.500000
vt 0.625000 0.500000
vt 0.625000 0.500000
vt 0.625000 0.500000
vt 0.625000 0.500000
vt 0.625000 0.500000
vt 0.625000 0.500000
vt 0.625000 0.500000
vt 0.625000 0.500000
vt 0.625000 0.500000
vt 0.625000 0.500000
vt 0.625000 0.500000
vt 0.625000 0.500000
vt 0.625000 0.500000
vt 0.625000 0.500000
vt 0.625000 0.500000
vt 0.625000 0.500000
vt 0.625000 0.500000
vt 0.625000 0.500000
vt 0.625000 0.500000
vt 0.625000 0.500000
vt 0.625000 0.500000
vt 0.625000 0.500000
vt 0.625000 0.500000
vt 0.625000 0.500000
vt 0.625000 0.500000
vt 0.625000 0.500000
vt 0.625000 0.500000
vt 0.625000 0.500000
vt 0.625000 0.500000
vt 0.625000 0.500000
vt 0.625000 0.500000
vt 0.625000 0.500000
vt 0.625000 0.500000
vt 0.625000 0.500000
vt 0.625000 0.500000
vt 0.625000 0.500000
vt 0.625000 0.500000
vt 0.625000 0.500000
vt 0.625000 0.500000
vt 0.625000 0.500000
vt 0.625000 0.500000
vt 0.625000 0.500000
vt 0.625000 0.500000
vt 0.625000 0.500000
vt 0.625000 0.500000
vt 0.625000 0.500000
vt 0.625000 0.500000
vt 0.625000 0.500000
vt 0.625000 0.500000
vt 0.625000 0.500000
vt 0.625000 0.500000
vt 0.625000 0.500000
vt 0.625000 0.500000
vt 0.625000 0.500000
vt 0.625000 0.500000
vt 0.625000 0.500000
vt 0.625000 0.500000
vt 0.625000 0.500000
vt 0.625000 0.500000
vt 0.625000 0.500000
vt 0.625000 0.500000
vt 0.625000 0.500000
vt 0.625000 0.500000
vt 0.625000 0.500000
vt 0.625000 0.500000
vt 0.625000 0.500000
vt 0.625000 0.500000
vt 0.625000 0.500000
vt 0.625000 0.500000
vt 0.625000 0.500000
vt 0.625000 0.500000
vt 0.625000 0.500000
vt 0.625000 0.500000
vt 0.625000 0.500000
vt 0.625000 0.500000
vt 0.625000 0.500000
vt 0.625000 0.500000
vt 0.625000 0.500000
vt 0.625000 0.500000
vt 0.625000 0.500000
vt 0.625000 0.500000
vt 0.625000 0.500000
vt 0.625000 0.500000
vt 0.625000 0.500000
vt 0.625000 0.500000
vt 0.625000 0.500000
vt 0.625000 0.500000
vt 0.625000 0.500000
vt 0.625000 0.500000
vt 0.625000 0.500000
vt 0.625000 0.500000
vt 0.625000 0.500000
vt 0.625000 0.500000
vt 0.625000 0.500000
vt 0.625000 0.500000
vt 0.625000 0.500000
vt 0.625000 0.500000
vt 0.625000 0.500000
vt 0.625000 0.500000
vt 0.625000 0.500000
vt 0.625000 0.500000
vt 0.625000 0.500000
vt 0.625000 0.500000
vt 0.625000 0.500000
vt 0.625000 0.500000
vt 0.625000 0.500000
vt 0.625000 0.500000
vt 0.625000 0.500000
vt 0.625000 0.500000
vt 0.625000 0.500000
vt 0.625000 0.500000
vt 0.625000 0.500000
vt 0.625000 0.500000
vt 0.625000 0.500000
vt 0.625000 0.500000
vt 0.625000 0.500000
vt 0.625000 0.500000
vt 0.625000 0.500000
vt 0.625000 0.500000
vt 0.625000 0.500000
vt 0.625000 0.500000
vt 0.625000 0.500000
vt 0.625000 0.500000
vt 0.625000 0.500000
vt 0.625000 0.500000
vt 0.625000 0.500000
vt 0.625000 0.500000
vt 0.625000 0.500000
vt 0.625000 0.500000
vt 0.625000 0.500000
vt 0.625000 0.500000
vt 0.625000 0.500000
vt 0.625000 0.500000
vt 0.625000 0.500000
vt 0.625000 0.500000
vt 0.625000 0.500000
vt 0.625000 0.500000
vt 0.625000 0.500000
vt 0.625000 0.500000
vt 0.625000 0.500000
vt 0.625000 0.500000
vt 0.625000 0.500000
vt 0.625000 0.500000
vt 0.625000 0.500000
vt 0.625000 0.500000
vt 0.625000 0.500000
vt 0.625000 0.500000
vt 0.625000 0.500000
vt 0.625000 0.500000
vt 0.625000 0.500000
vt 0.625000 0.500000
vt 0.625000 0.500000
vt 0.625000 0.500000
vt 0.625000 0.500000
vt 0.625000 0.500000
vt 0.625000 0.500000
vt 0.625000 0.500000
vt 0.625000 0.500000
vt 0.625000 0.500000
vt 0.625000 0.500000
vt 0.625000 0.500000
vt 0.625000 0.500000
vt 0.625000 0.500000
vt 0.625000 0.500000
vt 0.625000 0.500000
vt 0.625000 0.500000
vt 0.625000 0.500000
vt 0.625000 0.500000
vt 0.625000 0.500000
vt 0.625000 0.500000
vt 0.625000 0.500000
vt 0.625000 0.500000
vt 0.625000 0.500000
vt 0.625000 0.500000
vt 0.625000 0.500000
vt 0.625000 0.500000
vt 0.625000 0.500000
vt 0.625000 0.500000
vt 0.625000 0.500000
vt 0.625000 0.500000
vt 0.625000 0.500000
vt 0.625000 0.500000
vt 0.625000 0.500000
vt 0.625000 0.500000
vt 0.625000 0.500000
vt 0.625000 0.500000
vt 0.625000 0.500000
vt 0.625000 0.500000
vt 0.625000 0.500000
vt 0.625000 0.500000
vt 0.625000 0.500000
vt 0.625000 0.500000
vt 0.625000 0.500000
vt 0.625000 0.500000
vt 0.625000 0.500000
vt 0.625000 0.500000
vt 0.625000 0.500000
vt 0.625000 0.500000
vt 0.625000 0.500000
vt 0.625000 0.500000
vt 0.625000 0.500000
vt 0.625000 0.500000
vt 0.625000 0.500000
vt 0.625000 0.500000
vt 0.625000 0.500000
vt 0.625000 0.500000
vt 0.625000 0.500000
vt 0.625000 0.500000
vt 0.625000 0.500000
vt 0.625000 0.500000
vt 0.625000 0.500000
vt 0.625000 0.500000
vt 0.625000 0.500000
vt 0.625000 0.500000
vt 0.625000 0.500000
vt 0.625000 0.500000
vt 0.625000 0.500000
vt 0.625000 0.500000
vt 0.625000 0.500000
vt 0.625000 0.500000
vt 0.625000 0.500000
vt 0.625000 0.500000
vt 0.625000 0.500000
vt 0.625000 0.500000
vt 0.625000 0.500000
vt 0.625000 0.500000
vt 0.625000 0.500000
vt 0.625000 0.500000
vt 0.625000 0.500000
vt 0.625000 0.500000
vt 0.625000 0.500000
vt 0.625000 0.500000
vt 0.625000 0.500000
vt 0.625000 0.500000
vt 0.625000 0.500000
vt 0.625000 0.500000
vt 0.625000 0.500000
vt 0.625000 0.500000
vt 0.625000 0.500000
vt 0.625000 0.500000
vt 0.625000 0.500000
vt 0.625000 0.500000
vt 0.625000 0.500000
vt 0.625000 0.500000
vt 0.625000 0.500000
vt 0.625000 0.500000
vt 0.625000 0.500000
vt 0.625000 0.500000
vt 0.625000 0.500000
vt 0.625000 0.500000
vt 0.625000 0.500000
vt 0.625000 0.500000
vt 0.625000 0.500000
vt 0.625000 0.500000
vt 0.625000 0.500000
vt 0.625000 0.500000
vt 0.625000 0.500000
vt 0.625000 0.500000
vt 0.625000 0.500000
vt 0.625000 0.500000
vt 0.625000 0.500000
vt 0.625000 0.500000
vt 0.625000 0.500000
vt 0.625000 0.500000
vt 0.625000 0.500000
vt 0.625000 0.500000
vt 0.625000 0.500000
vt 0.625000 0.500000
vt 0.625000 0.500000
vt 0.625000 0.500000
vt 0.625000 0.500000
vt 0.625000 0.500000
vt 0.625000 0.500000
vt 0.625000 0.500000
vt 0.625000 0.500000
vt 0.625000 0.500000
vt 0.625000 0.500000
vt 0.625000 0.500000
vt 0.625000 0.500000
vt 0.625000 0.500000
vt 0.625000 0.500000
vt 0.625000 0.500000
vt 0.625000 0.500000
vt 0.625000 0.500000
vt 0.625000 0.500000
vt 0.625000 0.500000
vt 0.625000 0.500000
vt 0.625000 0.500000
vt 0.625000 0.500000
vt 0.625000 0.500000
vt 0.625000 0.500000
vt 0.625000 0.500000
vt 0.625000 0.500000
vt 0.625000 0.500000
vt 0.625000 0.500000
vt 0.625000 0.500000
vt 0.625000 0.500000
vt 0.625000 0.500000
vt 0.625000 0.500000
vt 0.625000 0.500000
vt 0.625000 0.500000
vt 0.625000 0.500000
vt 0.625000 0.500000
s 0
f 42/42/1 41/41/1 37/37/1 112/112/1 139/139/1 142/142/1 130/130/1 370/370/1 345/345/1
f 22/22/1 21/21/1 3/3/1 38/38/1 51/51/1 54/54/1 42/42/1 345/345/1 316/316/1
f 186/186/2 185/185/2 181/181/2 148/148/2 175/175/2 178/178/2 166/166/2 397/397/2 426/426/2
f 130/130/1 129/129/1 111/111/1 74/74/1 87/87/1 90/90/1 78/78/1 291/291/1 370/370/1
f 343/343/3 372/372/3 478/478/3 453/453/3
f 371/371/4 290/290/4 398/398/4 479/479/4
f 317/317/5 344/344/5 452/452/5 425/425/5
f 258/258/2 257/257/2 253/253/2 220/220/2 247/247/2 250/250/2 238/238/2 451/451/2 480/480/2
f 166/166/2 165/165/2 147/147/2 254/254/2 267/267/2 270/270/2 258/258/2 480/480/2 397/397/2
f 2/2/4 183/183/4 218/218/4 39/39/4
f 76/76/3 145/145/3 184/184/3 1/1/3
f 238/238/2 237/237/2 219/219/2 182/182/2 195/195/2 198/198/2 186/186/2 426/426/2 451/451/2
f 289/289/6 318/318/6 424/424/6 399/399/6
f 110/110/5 255/255/5 146/146/5 75/75/5
f 40/40/6 217/217/6 256/256/6 109/109/6
f 1/1/7 5/5/7 8/8/7 7/7/7
f 5/5/8 6/6/8 9/9/8 8/8/8
f 6/6/9 18/18/9 19/19/9 9/9/9
f 7/7/10 8/8/10 11/11/10 10/10/10
f 8/8/11 9/9/11 12/12/11 11/11/11
f 9/9/12 19/19/12 20/20/12 12/12/12
f 2/2/13 13/13/13 16/16/13 15/15/13
f 13/13/14 14/14/14 17/17/14 16/16/14
f 14/14/15 26/26/15 27/27/15 17/17/15
f 15/15/16 16/16/16 19/19/16 18/18/16
f 16/16/17 17/17/17 20/20/17 19/19/17
f 17/17/18 27/27/18 28/28/18 20/20/18
f 3/3/19 21/21/19 24/24/19 23/23/19
f 21/21/20 22/22/20 25/25/20 24/24/20
f 22/22/21 34/34/21 35/35/21 25/25/21
f 23/23/22 24/24/22 27/27/22 26/26/22
f 24/24/23 25/25/23 28/28/23 27/27/23
f 25/25/24 35/35/24 36/36/24 28/28/24
f 4/4/25 29/29/25 32/32/25 31/31/25
f 29/29/26 30/30/26 33/33/26 32/32/26
f 30/30/27 10/10/27 11/11/27 33/33/27
f 31/31/28 32/32/28 35/35/28 34/34/28
f 32/32/29 33/33/29 36/36/29 35/35/29
f 33/33/30 11/11/30 12/12/30 36/36/30
f 12/12/31 20/20/31 28/28/31 36/36/31
f 37/37/32 41/41/32 44/44/32 43/43/32
f 41/41/33 42/42/33 45/45/33 44/44/33
f 42/42/34 54/54/34 55/55/34 45/45/34
f 43/43/35 44/44/35 47/47/35 46/46/35
f 44/44/36 45/45/36 48/48/36 47/47/36
f 45/45/37 55/55/37 56/56/37 48/48/37
f 38/38/38 49/49/38 52/52/38 51/51/38
f 49/49/39 50/50/39 53/53/39 52/52/39
f 50/50/40 62/62/40 63/63/40 53/53/40
f 51/51/41 52/52/41 55/55/41 54/54/41
f 52/52/42 53/53/42 56/56/42 55/55/42
f 53/53/43 63/63/43 64/64/43 56/56/43
f 39/39/44 57/57/44 60/60/44 59/59/44
f 57/57/45 58/58/45 61/61/45 60/60/45
f 58/58/46 70/70/46 71/71/46 61/61/46
f 59/59/47 60/60/47 63/63/47 62/62/47
f 60/60/48 61/61/48 64/64/48 63/63/48
f 61/61/49 71/71/49 72/72/49 64/64/49
f 40/40/50 65/65/50 68/68/50 67/67/50
f 65/65/51 66/66/51 69/69/51 68/68/51
f 66/66/52 46/46/52 47/47/52 69/69/52
f 67/67/53 68/68/53 71/71/53 70/70/53
f 68/68/54 69/69/54 72/72/54 71/71/54
f 69/69/55 47/47/55 48/48/55 72/72/55
f 48/48/56 56/56/56 64/64/56 72/72/56
f 73/73/57 77/77/57 80/80/57 79/79/57
f 77/77/58 78/78/58 81/81/58 80/80/58
f 78/78/59 90/90/59 91/91/59 81/81/59
f 79/79/60 80/80/60 83/83/60 82/82/60
f 80/80/61 81/81/61 84/84/61 83/83/61
f 81/81/62 91/91/62 92/92/62 84/84/62
f 74/74/63 85/85/63 88/88/63 87/87/63
f 85/85/64 86/86/64 89/89/64 88/88/64
f 86/86/65 98/98/65 99/99/65 89/89/65
f 87/87/66 88/88/66 91/91/66 90/90/66
f 88/88/67 89/89/67 92/92/67 91/91/67
f 89/89/68 99/99/68 100/100/68 92/92/68
f 75/75/69 93/93/69 96/96/69 95/95/69
f 93/93/70 94/94/70 97/97/70 96/96/70
f 94/94/71 106/106/71 107/107/71 97/97/71
f 95/95/72 96/96/72 99/99/72 98/98/72
f 96/96/73 97/97/73 100/100/73 99/99/73
f 97/97/74 107/107/74 108/108/74 100/100/74
f 76/76/75 101/101/75 104/104/75 103/103/75
f 101/101/76 102/102/76 105/105/76 104/104/76
f 102/102/77 82/82/77 83/83/77 105/105/77
f 103/103/78 104/104/78 107/107/78 106/106/78
f 104/104/79 105/105/79 108/108/79 107/107/79
f 105/105/80 83/83/80 84/84/80 108/108/80
f 84/84/81 92/92/81 100/100/81 108/108/81
f 109/109/82 113/113/82 116/116/82 115/115/82
f 113/113/83 114/114/83 117/117/83 116/116/83
f 114/114/84 126/126/84 127/127/84 117/117/84
f 115/115/85 116/116/85 119/119/85 118/118/85
f 116/116/86 117/117/86 120/120/86 119/119/86
f 117/117/87 127/127/87 128/128/87 120/120/87
f 110/110/88 121/121/88 124/124/88 123/123/88
f 121/121/89 122/122/89 125/125/89 124/124/89
f 122/122/90 134/134/90 135/135/90 125/125/90
f 123/123/91 124/124/91 127/127/91 126/126/91
f 124/124/92 125/125/92 128/128/92 127/127/92
f 125/125/93 135/135/93 136/136/93 128/128/93
f 111/111/94 129/129/94 132/132/94 131/131/94
f 129/129/95 130/130/95 133/133/95 132/132/95
f 130/130/96 142/142/96 143/143/96 133/133/96
f 131/131/97 132/132/97 135/135/97 134/134/97
f 132/132/98 133/133/98 136/136/98 135/135/98
f 133/133/99 143/143/99 144/144/99 136/136/99
f 112/112/100 137/137/100 140/140/100 139/139/100
f 137/137/101 138/138/101 141/141/101 140/140/101
f 138/138/102 118/118/102 119/119/102 141/141/102
f 139/139/103 140/140/103 143/143/103 142/142/103
f 140/140/104 141/141/104 144/144/104 143/143/104
f 141/141/105 119/119/105 120/120/105 144/144/105
f 120/120/106 128/128/106 136/136/106 144/144/106
f 145/145/107 149/149/107 152/152/107 151/151/107
f 149/149/108 150/150/108 153/153/108 152/152/108
f 150/150/109 162/162/109 163/163/109 153/153/109
f 151/151/110 152/152/110 155/155/110 154/154/110
f 152/152/111 153/153/111 156/156/111 155/155/111
f 153/153/112 163/163/112 164/164/112 156/156/112
f 146/146/113 157/157/113 160/160/113 159/159/113
f 157/157/114 158/158/114 161/161/114 160/160/114
f 158/158/115 170/170/115 171/171/115 161/161/115
f 159/159/116 160/160/116 163/163/116 162/162/116
f 160/160/117 161/161/117 164/164/117 163/163/117
f 161/161/118 171/171/118 172/172/118 164/164/118
f 147/147/119 165/165/119 168/168/119 167/167/119
f 165/165/120 166/166/120 169/169/120 168/168/120
f 166/166/121 178/178/121 179/179/121 169/169/121
f 167/167/122 168/168/122 171/171/122 170/170/122
f 168/168/123 169/169/123 172/172/123 171/171/123
f 169/169/124 179/179/124 180/180/124 172/172/124
f 148/148/125 173/173/125 176/176/125 175/175/125
f 173/173/126 174/174/126 177/177/126 176/176/126
f 174/174/127 154/154/127 155/155/127 177/177/127
f 175/175/128 176/176/128 179/179/128 178/178/128
f 176/176/129 177/177/129 180/180/129 179/179/129
f 177/177/130 155/155/130 156/156/130 180/180/130
f 156/156/131 164/164/131 172/172/131 180/180/131
f 181/181/132 185/185/132 188/188/132 187/187/132
f 185/185/133 186/186/133 189/189/133 188/188/133
f 186/186/134 198/198/134 199/199/134 189/189/134
f 187/187/135 188/188/135 191/191/135 190/190/135
f 188/188/136 189/189/136 192/192/136 191/191/136
f 189/189/137 199/199/137 200/200/137 192/192/137
f 182/182/138 193/193/138 196/196/138 195/195/138
f 193/193/139 194/194/139 197/197/139 196/196/139
f 194/194/140 206/206/140 207/207/140 197/197/140
f 195/195/141 196/196/141 199/199/141 198/198/141
f 196/196/142 197/197/142 200/200/142 199/199/142
f 197/197/143 207/207/143 208/208/143 200/200/143
f 183/183/144 201/201/144 204/204/144 203/203/144
f 201/201/145 202/202/145 205/205/145 204/204/145
f 202/202/146 214/214/146 215/215/146 205/205/146
f 203/203/147 204/204/147 207/207/147 206/206/147
f 204/204/148 205/205/148 208/208/148 207/207/148
f 205/205/149 215/215/149 216/216/149 208/208/149
f 184/184/150 209/209/150 212/212/150 211/211/150
f 209/209/151 210/210/151 213/213/151 212/212/151
f 210/210/152 190/190/152 191/191/152 213/213/152
f 211/211/153 212/212/153 215/215/153 214/214/153
f 212/212/154 213/213/154 216/216/154 215/215/154
f 213/213/155 191/191/155 192/192/155 216/216/155
f 192/192/156 200/200/156 208/208/156 216/216/156
f 217/217/157 221/221/157 224/224/157 223/223/157
f 221/221/158 222/222/158 225/225/158 224/224/158
f 222/222/159 234/234/159 235/235/159 225/225/159
f 223/223/160 224/224/160 227/227/160 226/226/160
f 224/224/161 225/225/161 228/228/161 227/227/161
f 225/225/162 235/235/162 236/236/162 228/228/162
f 218/218/163 229/229/163 232/232/163 231/231/163
f 229/229/164 230/230/164 233/233/164 232/232/164
f 230/230/165 242/242/165 243/243/165 233/233/165
f 231/231/166 232/232/166 235/235/166 234/234/166
f 232/232/167 233/233/167 236/236/167 235/235/167
f 233/233/168 243/243/168 244/244/168 236/236/168
f 219/219/169 237/237/169 240/240/169 239/239/169
f 237/237/170 238/238/170 241/241/170 240/240/170
f 238/238/171 250/250/171 251/251/171 241/241/171
f 239/239/172 240/240/172 243/243/172 242/242/172
f 240/240/173 241/241/173 244/244/173 243/243/173
f 241/241/174 251/251/174 252/252/174 244/244/174
f 220/220/175 245/245/175 248/248/175 247/247/175
f 245/245/176 246/246/176 249/249/176 248/248/176
f 246/246/177 226/226/177 227/227/177 249/249/177
f 247/247/178 248/248/178 251/251/178 250/250/178
f 248/248/179 249/249/179 252/252/179 251/251/179
f 249/249/180 227/227/180 228/228/180 252/252/180
f 228/228/181 236/236/181 244/244/181 252/252/181
f 253/253/182 257/257/182 260/260/182 259/259/182
f 257/257/183 258/258/183 261/261/183 260/260/183
f 258/258/184 270/270/184 271/271/184 261/261/184
f 259/259/185 260/260/185 263/263/185 262/262/185
f 260/260/186 261/261/186 264/264/186 263/263/186
f 261/261/187 271/271/187 272/272/187 264/264/187
f 254/254/188 265/265/188 268/268/188 267/267/188
f 265/265/189 266/266/189 269/269/189 268/268/189
f 266/266/190 278/278/190 279/279/190 269/269/190
f 267/267/191 268/268/191 271/271/191 270/270/191
f 268/268/192 269/269/192 272/272/192 271/271/192
f 269/269/193 279/279/193 280/280/193 272/272/193
f 255/255/194 273/273/194 276/276/194 275/275/194
f 273/273/195 274/274/195 277/277/195 276/276/195
f 274/274/196 286/286/196 287/287/196 277/277/196
f 275/275/197 276/276/197 279/279/197 278/278/197
f 276/276/198 277/277/198 280/280/198 279/279/198
f 277/277/199 287/287/199 288/288/199 280/280/199
f 256/256/200 281/281/200 284/284/200 283/283/200
f 281/281/201 282/282/201 285/285/201 284/284/201
f 282/282/202 262/262/202 263/263/202 285/285/202
f 283/283/203 284/284/203 287/287/203 286/286/203
f 284/284/204 285/285/204 288/288/204 287/287/204
f 285/285/205 263/263/205 264/264/205 288/288/205
f 264/264/206 272/272/206 280/280/206 288/288/206
f 289/289/207 292/292/207 295/295/207 294/294/207
f 292/292/208 293/293/208 296/296/208 295/295/208
f 293/293/209 305/305/209 306/306/209 296/296/209
f 294/294/210 295/295/210 298/298/210 297/297/210
f 295/295/211 296/296/211 299/299/211 298/298/211
f 296/296/212 306/306/212 307/307/212 299/299/212
f 290/290/213 300/300/213 303/303/213 302/302/213
f 300/300/214 301/301/214 304/304/214 303/303/214
f 301/301/215 313/313/215 314/314/215 304/304/215
f 302/302/216 303/303/216 306/306/216 305/305/216
f 303/303/217 304/304/217 307/307/217 306/306/217
f 304/304/218 314/314/218 315/315/218 307/307/218
f 291/291/219 308/308/219 311/311/219 310/310/219
f 308/308/220 309/309/220 312/312/220 311/311/220
f 309/309/221 297/297/221 298/298/221 312/312/221
f 310/310/222 311/311/222 314/314/222 313/313/222
f 311/311/223 312/312/223 315/315/223 314/314/223
f 312/312/224 298/298/224 299/299/224 315/315/224
f 299/299/225 307/307/225 315/315/225
f 316/316/226 319/319/226 322/322/226 321/321/226
f 319/319/227 320/320/227 323/323/227 322/322/227
f 320/320/228 332/332/228 333/333/228 323/323/228
f 321/321/229 322/322/229 325/325/229 324/324/229
f 322/322/230 323/323/230 326/326/230 325/325/230
f 323/323/231 333/333/231 334/334/231 326/326/231
f 317/317/232 327/327/232 330/330/232 329/329/232
f 327/327/233 328/328/233 331/331/233 330/330/233
f 328/328/234 340/340/234 341/341/234 331/331/234
f 329/329/235 330/330/235 333/333/235 332/332/235
f 330/330/236 331/331/236 334/334/236 333/333/236
f 331/331/237 341/341/237 342/342/237 334/334/237
f 318/318/238 335/335/238 338/338/238 337/337/238
f 335/335/239 336/336/239 339/339/239 338/338/239
f 336/336/240 324/324/240 325/325/240 339/339/240
f 337/337/241 338/338/241 341/341/241 340/340/241
f 338/338/242 339/339/242 342/342/242 341/341/242
f 339/339/243 325/325/243 326/326/243 342/342/243
f 326/326/244 334/334/244 342/342/244
f 343/343/245 346/346/245 349/349/245 348/348/245
f 346/346/246 347/347/246 350/350/246 349/349/246
f 347/347/247 359/359/247 360/360/247 350/350/247
f 348/348/248 349/349/248 352/352/248 351/351/248
f 349/349/249 350/350/249 353/353/249 352/352/249
f 350/350/250 360/360/250 361/361/250 353/353/250
f 344/344/251 354/354/251 357/357/251 356/356/251
f 354/354/252 355/355/252 358/358/252 357/357/252
f 355/355/253 367/367/253 368/368/253 358/358/253
f 356/356/254 357/357/254 360/360/254 359/359/254
f 357/357/255 358/358/255 361/361/255 360/360/255
f 358/358/256 368/368/256 369/369/256 361/361/256
f 345/345/257 362/362/257 365/365/257 364/364/257
f 362/362/258 363/363/258 366/366/258 365/365/258
f 363/363/259 351/351/259 352/352/259 366/366/259
f 364/364/260 365/365/260 368/368/260 367/367/260
f 365/365/261 366/366/261 369/369/261 368/368/261
f 366/366/262 352/352/262 353/353/262 369/369/262
f 353/353/263 361/361/263 369/369/263
f 370/370/264 373/373/264 376/376/264 375/375/264
f 373/373/265 374/374/265 377/377/265 376/376/265
f 374/374/266 386/386/266 387/387/266 377/377/266
f 375/375/267 376/376/267 379/379/267 378/378/267
f 376/376/268 377/377/268 380/380/268 379/379/268
f 377/377/269 387/387/269 388/388/269 380/380/269
f 371/371/270 381/381/270 384/384/270 383/383/270
f 381/381/271 382/382/271 385/385/271 384/384/271
f 382/382/272 394/394/272 395/395/272 385/385/272
f 383/383/273 384/384/273 387/387/273 386/386/273
f 384/384/274 385/385/274 388/388/274 387/387/274
f 385/385/275 395/395/275 396/396/275 388/388/275
f 372/372/276 389/389/276 392/392/276 391/391/276
f 389/389/277 390/390/277 393/393/277 392/392/277
f 390/390/278 378/378/278 379/379/278 393/393/278
f 391/391/279 392/392/279 395/395/279 394/394/279
f 392/392/280 393/393/280 396/396/280 395/395/280
f 393/393/281 379/379/281 380/380/281 396/396/281
f 380/380/282 388/388/282 396/396/282
f 397/397/283 400/400/283 403/403/283 402/402/283
f 400/400/284 401/401/284 404/404/284 403/403/284
f 401/401/285 413/413/285 414/414/285 404/404/285
f 402/402/286 403/403/286 406/406/286 405/405/286
f 403/403/287 404/404/287 407/407/287 406/406/287
f 404/404/288 414/414/288 415/415/288 407/407/288
f 398/398/289 408/408/289 411/411/289 410/410/289
f 408/408/290 409/409/290 412/412/290 411/411/290
f 409/409/291 421/421/291 422/422/291 412/412/291
f 410/410/292 411/411/292 414/414/292 413/413/292
f 411/411/293 412/412/293 415/415/293 414/414/293
f 412/412/294 422/422/294 423/423/294 415/415/294
f 399/399/295 416/416/295 419/419/295 418/418/295
f 416/416/296 417/417/296 420/420/296 419/419/296
f 417/417/297 405/405/297 406/406/297 420/420/297
f 418/418/298 419/419/298 422/422/298 421/421/298
f 419/419/299 420/420/299 423/423/299 422/422/299
f 420/420/300 406/406/300 407/407/300 423/423/300
f 407/407/301 415/415/301 423/423/301
f 424/424/302 427/427/302 430/430/302 429/429/302
f 427/427/303 428/428/303 431/431/303 430/430/303
f 428/428/304 440/440/304 441/441/304 431/431/304
f 429/429/305 430/430/305 433/433/305 432/432/305
f 430/430/306 431/431/306 434/434/306 433/433/306
f 431/431/307 441/441/307 442/442/307 434/434/307
f 425/425/308 435/435/308 438/438/308 437/437/308
f 435/435/309 436/436/309 439/439/309 438/438/309
f 436/436/310 448/448/310 449/449/310 439/439/310
f 437/437/311 438/438/311 441/441/311 440/440/311
f 438/438/312 439/439/312 442/442/312 441/441/312
f 439/439/313 449/449/313 450/450/313 442/442/313
f 426/426/314 443/443/314 446/446/314 445/445/314
f 443/443/315 444/444/315 447/447/315 446/446/315
f 444/444/316 432/432/316 433/433/316 447/447/316
f 445/445/317 446/446/317 449/449/317 448/448/317
f 446/446/318 447/447/318 450/450/318 449/449/318
f 447/447/319 433/433/319 434/434/319 450/450/319
f 434/434/320 442/442/320 450/450/320
f 451/451/321 454/454/321 457/457/321 456/456/321
f 454/454/322 455/455/322 458/458/322 457/457/322
f 455/455/323 467/467/323 468/468/323 458/458/323
f 456/456/324 457/457/324 460/460/324 459/459/324
f 457/457/325 458/458/325 461/461/325 460/460/325
f 458/458/326 468/468/326 469/469/326 461/461/326
f 452/452/327 462/462/327 465/465/327 464/464/327
f 462/462/328 463/463/328 466/466/328 465/465/328
f 463/463/329 475/475/329 476/476/329 466/466/329
f 464/464/330 465/465/330 468/468/330 467/467/330
f 465/465/331 466/466/331 469/469/331 468/468/331
f 466/466/332 476/476/332 477/477/332 469/469/332
f 453/453/333 470/470/333 473/473/333 472/472/333
f 470/470/334 471/471/334 474/474/334 473/473/334
f 471/471/335 459/459/335 460/460/335 474/474/335
f 472/472/336 473/473/336 476/476/336 475/475/336
f 473/473/337 474/474/337 477/477/337 476/476/337
f 474/474/338 460/460/338 461/461/338 477/477/338
f 461/461/339 469/469/339 477/477/339
f 478/478/340 481/481/340 484/484/340 483/483/340
f 481/481/341 482/482/341 485/485/341 484/484/341
f 482/482/342 494/494/342 495/495/342 485/485/342
f 483/483/343 484/484/343 487/487/343 486/486/343
f 484/484/344 485/485/344 488/488/344 487/487/344
f 485/485/345 495/495/345 496/496/345 488/488/345
f 479/479/346 489/489/346 492/492/346 491/491/346
f 489/489/347 490/490/347 493/493/347 492/492/347
f 490/490/348 502/502/348 503/503/348 493/493/348
f 491/491/349 492/492/349 495/495/349 494/494/349
f 492/492/350 493/493/350 496/496/350 495/495/350
f 493/493/351 503/503/351 504/504/351 496/496/351
f 480/480/352 497/497/352 500/500/352 499/499/352
f 497/497/353 498/498/353 501/501/353 500/500/353
f 498/498/354 486/486/354 487/487/354 501/501/354
f 499/499/355 500/500/355 503/503/355 502/502/355
f 500/500/356 501/501/356 504/504/356 503/503/356
f 501/501/357 487/487/357 488/488/357 504/504/357
f 488/488/358 496/496/358 504/504/358
f 76/76/359 1/1/359 7/7/359 101/101/359
f 101/101/360 7/7/360 10/10/360 102/102/360
f 102/102/361 10/10/361 30/30/361 82/82/361
f 82/82/362 30/30/362 29/29/362 79/79/362
f 79/79/363 29/29/363 4/4/363 73/73/363
f 40/40/364 109/109/364 115/115/364 65/65/364
f 65/65/365 115/115/365 118/118/365 66/66/365
f 66/66/366 118/118/366 138/138/366 46/46/366
f 46/46/367 138/138/367 137/137/367 43/43/367
f 43/43/368 137/137/368 112/112/368 37/37/368
f 2/2/369 39/39/369 59/59/369 13/13/369
f 13/13/370 59/59/370 62/62/370 14/14/370
f 14/14/371 62/62/371 50/50/371 26/26/371
f 26/26/372 50/50/372 49/49/372 23/23/372
f 23/23/373 49/49/373 38/38/373 3/3/373
f 74/74/374 111/111/374 131/131/374 85/85/374
f 85/85/375 131/131/375 134/134/375 86/86/375
f 86/86/376 134/134/376 122/122/376 98/98/376
f 98/98/377 122/122/377 121/121/377 95/95/377
f 95/95/378 121/121/378 110/110/378 75/75/378
f 148/148/379 181/181/379 187/187/379 173/173/379
f 173/173/380 187/187/380 190/190/380 174/174/380
f 174/174/381 190/190/381 210/210/381 154/154/381
f 154/154/382 210/210/382 209/209/382 151/151/382
f 151/151/383 209/209/383 184/184/383 145/145/383
f 220/220/384 253/253/384 259/259/384 245/245/384
f 245/245/385 259/259/385 262/262/385 246/246/385
f 246/246/386 262/262/386 282/282/386 226/226/386
f 226/226/387 282/282/387 281/281/387 223/223/387
f 223/223/388 281/281/388 256/256/388 217/217/388
f 182/182/389 219/219/389 239/239/389 193/193/389
f 193/193/390 239/239/390 242/242/390 194/194/390
f 194/194/391 242/242/391 230/230/391 206/206/391
f 206/206/392 230/230/392 229/229/392 203/203/392
f 203/203/393 229/229/393 218/218/393 183/183/393
f 146/146/394 255/255/394 275/275/394 157/157/394
f 157/157/395 275/275/395 278/278/395 158/158/395
f 158/158/396 278/278/396 266/266/396 170/170/396
f 170/170/397 266/266/397 265/265/397 167/167/397
f 167/167/398 265/265/398 254/254/398 147/147/398
f 39/39/399 218/218/399 231/231/399 57/57/399
f 57/57/400 231/231/400 234/234/400 58/58/400
f 58/58/401 234/234/401 222/222/401 70/70/401
f 70/70/402 222/222/402 221/221/402 67/67/402
f 67/67/403 221/221/403 217/217/403 40/40/403
f 183/183/404 2/2/404 15/15/404 201/201/404
f 201/201/405 15/15/405 18/18/405 202/202/405
f 202/202/406 18/18/406 6/6/406 214/214/406
f 214/214/407 6/6/407 5/5/407 211/211/407
f 211/211/408 5/5/408 1/1/408 184/184/408
f 145/145/409 76/76/409 103/103/409 149/149/409
f 149/149/410 103/103/410 106/106/410 150/150/410
f 150/150/411 106/106/411 94/94/411 162/162/411
f 162/162/412 94/94/412 93/93/412 159/159/412
f 159/159/413 93/93/413 75/75/413 146/146/413
f 255/255/414 110/110/414 123/123/414 273/273/414
f 273/273/415 123/123/415 126/126/415 274/274/415
f 274/274/416 126/126/416 114/114/416 286/286/416
f 286/286/417 114/114/417 113/113/417 283/283/417
f 283/283/418 113/113/418 109/109/418 256/256/418
f 291/291/419 316/316/419 321/321/419 308/308/419
f 308/308/420 321/321/420 324/324/420 309/309/420
f 309/309/421 324/324/421 336/336/421 297/297/421
f 297/297/422 336/336/422 335/335/422 294/294/422
f 294/294/423 335/335/423 318/318/423 289/289/423
f 345/345/424 370/370/424 375/375/424 362/362/424
f 362/362/425 375/375/425 378/378/425 363/363/425
f 363/363/426 378/378/426 390/390/426 351/351/426
f 351/351/427 390/390/427 389/389/427 348/348/427
f 348/348/428 389/389/428 372/372/428 343/343/428
f 316/316/429 345/345/429 364/364/429 319/319/429
f 319/319/430 364/364/430 367/367/430 320/320/430
f 320/320/431 367/367/431 355/355/431 332/332/431
f 332/332/432 355/355/432 354/354/432 329/329/432
f 329/329/433 354/354/433 344/344/433 317/317/433
f 290/290/434 371/371/434 383/383/434 300/300/434
f 300/300/435 383/383/435 386/386/435 301/301/435
f 301/301/436 386/386/436 374/374/436 313/313/436
f 313/313/437 374/374/437 373/373/437 310/310/437
f 310/310/438 373/373/438 370/370/438 291/291/438
f 399/399/439 424/424/439 429/429/439 416/416/439
f 416/416/440 429/429/440 432/432/440 417/417/440
f 417/417/441 432/432/441 444/444/441 405/405/441
f 405/405/442 444/444/442 443/443/442 402/402/442
f 402/402/443 443/443/443 426/426/443 397/397/443
f 453/453/444 478/478/444 483/483/444 470/470/444
f 470/470/445 483/483/445 486/486/445 471/471/445
f 471/471/446 486/486/446 498/498/446 459/459/446
f 459/459/447 498/498/447 497/497/447 456/456/447
f 456/456/448 497/497/448 480/480/448 451/451/448
f 425/425/449 452/452/449 464/464/449 435/435/449
f 435/435/450 464/464/450 467/467/450 436/436/450
f 436/436/451 467/467/451 455/455/451 448/448/451
f 448/448/452 455/455/452 454/454/452 445/445/452
f 445/445/453 454/454/453 451/451/453 426/426/453
f 397/397/454 480/480/454 499/499/454 400/400/454
f 400/400/455 499/499/455 502/502/455 401/401/455
f 401/401/456 502/502/456 490/490/456 413/413/456
f 413/413/457 490/490/457 489/489/457 410/410/457
f 410/410/458 489/489/458 479/479/458 398/398/458
f 343/343/459 453/453/459 472/472/459 346/346/459
f 346/346/460 472/472/460 475/475/460 347/347/460
f 347/347/461 475/475/461 463/463/461 359/359/461
f 359/359/462 463/463/462 462/462/462 356/356/462
f 356/356/463 462/462/463 452/452/463 344/344/463
f 424/424/464 318/318/464 337/337/464 427/427/464
f 427/427/465 337/337/465 340/340/465 428/428/465
f 428/428/466 340/340/466 328/328/466 440/440/466
f 440/440/467 328/328/467 327/327/467 437/437/467
f 437/437/468 327/327/468 317/317/468 425/425/468
f 398/398/469 290/290/469 302/302/469 408/408/469
f 408/408/470 302/302/470 305/305/470 409/409/470
f 409/409/471 305/305/471 293/293/471 421/421/471
f 421/421/472 293/293/472 292/292/472 418/418/472
f 418/418/473 292/292/473 289/289/473 399/399/473
f 478/478/474 372/372/474 391/391/474 481/481/474
f 481/481/475 391/391/475 394/394/475 482/482/475
f 482/482/476 394/394/476 382/382/476 494/494/476
f 494/494/477 382/382/477 381/381/477 491/491/477
f 491/491/478 381/381/478 371/371/478 479/479/478
f 78/78/1 77/77/1 73/73/1 4/4/1 31/31/1 34/34/1 22/22/1 316/316/1 291/291/1
