# Blender 3.4.1
# www.blender.org
o Cube.001
v 0.252000 0.763000 -0.315000
v 0.252000 0.763000 0.315000
v -0.336000 0.763000 0.315000
v -0.336000 0.763000 -0.315000
v 0.252000 0.721000 0.315000
v 0.252000 0.721000 -0.315000
v 0.252000 1.351000 0.315000
v 0.252000 1.351000 -0.315000
v -0.378000 0.721000 0.315000
v -0.378000 0.763000 -0.315000
v -0.378000 0.721000 -0.315000
v -0.378000 0.763000 0.315000
v -0.378000 1.309000 -0.315000
v -0.378000 1.309000 0.315000
v -0.378000 1.351000 -0.315000
v -0.378000 1.351000 0.315000
v 0.201600 0.763000 -0.315000
v 0.201600 0.763000 0.315000
v 0.201600 1.309000 -0.315000
v 0.201600 1.309000 0.315000
v -0.336000 0.859600 0.420000
v -0.336000 0.859600 -0.315000
v -0.336000 0.859600 0.315000
v -0.378000 0.859600 -0.315000
v -0.378000 0.859600 0.315000
v 0.201600 0.859600 0.315000
v 0.201600 0.859600 -0.315000
v -0.333900 1.309000 -0.315000
v -0.333900 1.309000 0.315000
v -0.220500 1.309000 -0.315000
v -0.220500 1.309000 0.315000
v -0.333900 1.288000 -0.315000
v -0.333900 1.288000 0.315000
v -0.220500 1.288000 -0.315000
v -0.220500 1.288000 0.315000
v -0.336000 0.763000 -0.420000
v -0.336000 0.721000 -0.420000
v -0.336000 0.763000 0.420000
v -0.336000 0.721000 0.420000
v -0.336000 0.721000 -0.315000
v -0.336000 0.721000 0.315000
v -0.336000 1.309000 0.420000
v -0.336000 1.309000 -0.315000
v -0.336000 1.309000 -0.420000
v -0.336000 1.309000 0.315000
v -0.336000 1.351000 0.420000
v -0.336000 1.351000 -0.315000
v -0.336000 1.351000 -0.420000
v -0.336000 1.351000 0.315000
v -0.336000 0.859600 -0.420000
v 0.212100 0.763000 -0.420000
v 0.252000 0.763000 -0.380100
v 0.224430 0.763000 -0.418047
v 0.235553 0.763000 -0.412380
v 0.244380 0.763000 -0.403553
v 0.250047 0.763000 -0.392430
v 0.212100 0.721000 -0.420000
v 0.252000 0.721000 -0.380100
v 0.224430 0.721000 -0.418047
v 0.235553 0.721000 -0.412380
v 0.244380 0.721000 -0.403553
v 0.250047 0.721000 -0.392430
v 0.252000 0.763000 0.380100
v 0.212100 0.763000 0.420000
v 0.250047 0.763000 0.392430
v 0.244380 0.763000 0.403553
v 0.235553 0.763000 0.412380
v 0.224430 0.763000 0.418047
v 0.252000 0.721000 0.380100
v 0.212100 0.721000 0.420000
v 0.250047 0.721000 0.392430
v 0.244380 0.721000 0.403553
v 0.235553 0.721000 0.412380
v 0.224430 0.721000 0.418047
v 0.252000 1.309000 0.380100
v 0.212100 1.309000 0.420000
v 0.250047 1.309000 0.392430
v 0.244380 1.309000 0.403553
v 0.235553 1.309000 0.412380
v 0.224430 1.309000 0.418047
v 0.212100 1.309000 0.315000
v 0.252000 1.348900 0.354900
v 0.224430 1.310953 0.316953
v 0.235553 1.316620 0.322620
v 0.244380 1.325447 0.331447
v 0.250047 1.336570 0.342570
v 0.252000 1.309000 -0.380100
v 0.212100 1.309000 -0.420000
v 0.250047 1.309000 -0.392430
v 0.244380 1.309000 -0.403553
v 0.235553 1.309000 -0.412380
v 0.224430 1.309000 -0.418047
v 0.252000 1.348900 -0.354900
v 0.212100 1.309000 -0.315000
v 0.250047 1.336570 -0.342570
v 0.244380 1.325447 -0.331447
v 0.235553 1.316620 -0.322620
v 0.224430 1.310953 -0.316953
v 0.212100 1.351000 0.420000
v 0.252000 1.351000 0.380100
v 0.224430 1.351000 0.418047
v 0.235553 1.351000 0.412380
v 0.244380 1.351000 0.403553
v 0.250047 1.351000 0.392430
v 0.252000 1.351000 -0.380100
v 0.212100 1.351000 -0.420000
v 0.250047 1.351000 -0.392430
v 0.244380 1.351000 -0.403553
v 0.235553 1.351000 -0.412380
v 0.224430 1.351000 -0.418047
v -0.338100 0.721000 0.420000
v -0.378000 0.721000 0.380100
v -0.350430 0.721000 0.418047
v -0.361553 0.721000 0.412380
v -0.370380 0.721000 0.403553
v -0.376047 0.721000 0.392430
v -0.338100 0.763000 0.420000
v -0.378000 0.763000 0.380100
v -0.350430 0.763000 0.418047
v -0.361553 0.763000 0.412380
v -0.370380 0.763000 0.403553
v -0.376047 0.763000 0.392430
v -0.378000 0.763000 -0.380100
v -0.338100 0.763000 -0.420000
v -0.376047 0.763000 -0.392430
v -0.370380 0.763000 -0.403553
v -0.361553 0.763000 -0.412380
v -0.350430 0.763000 -0.418047
v -0.378000 0.721000 -0.380100
v -0.338100 0.721000 -0.420000
v -0.376047 0.721000 -0.392430
v -0.370380 0.721000 -0.403553
v -0.361553 0.721000 -0.412380
v -0.350430 0.721000 -0.418047
v -0.378000 1.309000 -0.380100
v -0.338100 1.309000 -0.420000
v -0.376047 1.309000 -0.392430
v -0.370380 1.309000 -0.403553
v -0.361553 1.309000 -0.412380
v -0.350430 1.309000 -0.418047
v -0.378000 1.309000 0.380100
v -0.338100 1.309000 0.420000
v -0.376047 1.309000 0.392430
v -0.370380 1.309000 0.403553
v -0.361553 1.309000 0.412380
v -0.350430 1.309000 0.418047
v -0.338100 1.351000 -0.420000
v -0.378000 1.351000 -0.380100
v -0.350430 1.351000 -0.418047
v -0.361553 1.351000 -0.412380
v -0.370380 1.351000 -0.403553
v -0.376047 1.351000 -0.392430
v -0.378000 1.351000 0.380100
v -0.338100 1.351000 0.420000
v -0.376047 1.351000 0.392430
v -0.370380 1.351000 0.403553
v -0.361553 1.351000 0.412380
v -0.350430 1.351000 0.418047
v 0.212100 0.859600 -0.420000
v 0.252000 0.859600 -0.380100
v 0.224430 0.859600 -0.418047
v 0.235553 0.859600 -0.412380
v 0.244380 0.859600 -0.403553
v 0.250047 0.859600 -0.392430
v 0.212100 0.859600 0.420000
v 0.252000 0.859600 0.380100
v 0.224430 0.859600 0.418047
v 0.235553 0.859600 0.412380
v 0.244380 0.859600 0.403553
v 0.250047 0.859600 0.392430
v 0.252000 0.819700 -0.354900
v 0.212100 0.859600 -0.315000
v 0.250047 0.832030 -0.342570
v 0.244380 0.843153 -0.331447
v 0.235553 0.851980 -0.322620
v 0.224430 0.857647 -0.316953
v 0.212100 0.859600 0.315000
v 0.252000 0.819700 0.354900
v 0.224430 0.857647 0.316953
v 0.235553 0.851980 0.322620
v 0.244380 0.843153 0.331447
v 0.250047 0.832030 0.342570
v -0.338100 0.859600 -0.420000
v -0.378000 0.859600 -0.380100
v -0.350430 0.859600 -0.418047
v -0.361553 0.859600 -0.412380
v -0.370380 0.859600 -0.403553
v -0.376047 0.859600 -0.392430
v -0.338100 0.859600 0.420000
v -0.378000 0.859600 0.380100
v -0.350430 0.859600 0.418047
v -0.361553 0.859600 0.412380
v -0.370380 0.859600 0.403553
v -0.376047 0.859600 0.392430
vn -0.0000 -0.0000 -1.0000
vn -0.0000 -1.0000 -0.0000
vn 1.0000 -0.0000 -0.0000
vn -1.0000 -0.0000 -0.0000
vn -0.0000 1.0000 -0.0000
vn -0.0000 -0.0000 1.0000
vn 0.9877 -0.0000 -0.1564
vn 0.8910 -0.0000 -0.4540
vn 0.7071 -0.0000 -0.7071
vn 0.4540 -0.0000 -0.8910
vn 0.1564 -0.0000 -0.9877
vn 0.1564 -0.0000 0.9877
vn 0.4540 -0.0000 0.8910
vn 0.7071 -0.0000 0.7071
vn 0.8910 -0.0000 0.4540
vn 0.9877 -0.0000 0.1564
vn 0.1564 0.9877 -0.0000
vn 0.4540 0.8910 -0.0000
vn 0.7071 0.7071 -0.0000
vn 0.8910 0.4540 -0.0000
vn 0.9877 0.1564 -0.0000
vn 0.1564 -0.9877 -0.0000
vn 0.4540 -0.8910 -0.0000
vn 0.7071 -0.7071 -0.0000
vn 0.8910 -0.4540 -0.0000
vn 0.9877 -0.1564 -0.0000
vn -0.1564 -0.0000 0.9877
vn -0.4540 -0.0000 0.8910
vn -0.7071 -0.0000 0.7071
vn -0.8910 -0.0000 0.4540
vn -0.9877 -0.0000 0.1564
vn -0.1564 -0.0000 -0.9877
vn -0.4540 -0.0000 -0.8910
vn -0.7071 -0.0000 -0.7071
vn -0.8910 -0.0000 -0.4540
vn -0.9877 -0.0000 -0.1564
vt 0.625000 0.583333
vt 0.625000 0.666667
vt 0.875000 0.666667
vt 0.875000 0.583333
vt 0.375000 0.666667
vt 0.375000 0.583333
vt 0.625000 0.666667
vt 0.625000 0.583333
vt 0.125000 0.666667
vt 0.375000 0.083333
vt 0.625000 0.166667
vt 0.125000 0.583333
vt 0.375000 0.166667
vt 0.625000 0.083333
vt 0.625000 0.166667
vt 0.625000 0.083333
vt 0.625000 0.166667
vt 0.875000 0.583333
vt 0.875000 0.666667
vt 0.625000 0.083333
vt 0.650000 0.583333
vt 0.650000 0.666667
vt 0.650000 0.583333
vt 0.650000 0.666667
vt 0.625000 1.000000
vt 0.875000 0.583333
vt 0.875000 0.666667
vt 0.625000 0.166667
vt 0.625000 0.083333
vt 0.650000 0.666667
vt 0.650000 0.583333
vt 0.875000 0.583333
vt 0.875000 0.666667
vt 0.650000 0.583333
vt 0.650000 0.666667
vt 0.875000 0.583333
vt 0.875000 0.666667
vt 0.650000 0.583333
vt 0.650000 0.666667
vt 0.625000 0.250000
vt 0.125000 0.500000
vt 0.375000 0.250000
vt 0.625000 1.000000
vt 0.125000 0.750000
vt 0.375000 1.000000
vt 0.125000 0.583333
vt 0.125000 0.666667
vt 0.625000 1.000000
vt 0.875000 0.583333
vt 0.625000 0.250000
vt 0.875000 0.666667
vt 0.625000 1.000000
vt 0.875000 0.750000
vt 0.875000 0.583333
vt 0.625000 0.250000
vt 0.875000 0.500000
vt 0.875000 0.666667
vt 0.625000 0.250000
vt 0.625000 0.483036
vt 0.625000 0.531667
vt 0.625000 0.488278
vt 0.625000 0.493007
vt 0.625000 0.513053
vt 0.625000 0.521881
vt 0.358036 0.500000
vt 0.375000 0.483036
vt 0.375000 0.531667
vt 0.363278 0.501550
vt 0.375000 0.488278
vt 0.368007 0.506048
vt 0.375000 0.493007
vt 0.371760 0.513053
vt 0.375000 0.513053
vt 0.374170 0.521881
vt 0.375000 0.521881
vt 0.625000 0.718333
vt 0.625000 0.766964
vt 0.625000 0.728119
vt 0.625000 0.736947
vt 0.625000 0.756993
vt 0.625000 0.761722
vt 0.375000 0.718333
vt 0.358036 0.750000
vt 0.375000 0.766964
vt 0.374170 0.728119
vt 0.375000 0.728119
vt 0.371760 0.736947
vt 0.375000 0.736947
vt 0.368007 0.743952
vt 0.375000 0.756993
vt 0.363278 0.748450
vt 0.375000 0.761722
vt 0.625000 0.718333
vt 0.625000 0.766964
vt 0.625000 0.728119
vt 0.625000 0.736947
vt 0.625000 0.756993
vt 0.625000 0.761722
vt 0.644792 0.666667
vt 0.625000 0.698333
vt 0.625000 0.671944
vt 0.638676 0.666796
vt 0.633158 0.667171
vt 0.625000 0.674281
vt 0.625000 0.679431
vt 0.625000 0.531667
vt 0.625000 0.483036
vt 0.625000 0.521881
vt 0.625000 0.513053
vt 0.625000 0.493007
vt 0.625000 0.488278
vt 0.625000 0.551667
vt 0.625000 0.578056
vt 0.644792 0.583333
vt 0.625000 0.570569
vt 0.625000 0.575719
vt 0.633158 0.582829
vt 0.638676 0.583204
vt 0.641964 0.750000
vt 0.625000 0.766964
vt 0.625000 0.718333
vt 0.636722 0.748450
vt 0.625000 0.761722
vt 0.631993 0.743952
vt 0.625000 0.756993
vt 0.628240 0.736947
vt 0.625000 0.736947
vt 0.625830 0.728119
vt 0.625000 0.728119
vt 0.625000 0.531667
vt 0.641964 0.500000
vt 0.625000 0.483036
vt 0.625830 0.521881
vt 0.625000 0.521881
vt 0.628240 0.513053
vt 0.625000 0.513053
vt 0.631993 0.506048
vt 0.625000 0.493007
vt 0.636722 0.501550
vt 0.625000 0.488278
vt 0.125000 0.750000
vt 0.375000 1.000000
vt 0.125000 0.718333
vt 0.375000 0.031667
vt 0.125000 0.748450
vt 0.375000 1.000000
vt 0.125000 0.743952
vt 0.375000 1.000000
vt 0.375000 0.000000
vt 0.125000 0.736947
vt 0.375000 0.013053
vt 0.125000 0.728119
vt 0.375000 0.021881
vt 0.625000 1.000000
vt 0.625000 0.031667
vt 0.625000 1.000000
vt 0.625000 0.000000
vt 0.625000 1.000000
vt 0.625000 0.013053
vt 0.625000 0.021881
vt 0.625000 0.218333
vt 0.625000 0.250000
vt 0.625000 0.228119
vt 0.625000 0.236947
vt 0.625000 0.250000
vt 0.625000 0.250000
vt 0.125000 0.531667
vt 0.375000 0.218333
vt 0.125000 0.500000
vt 0.375000 0.250000
vt 0.125000 0.521881
vt 0.375000 0.228119
vt 0.125000 0.513053
vt 0.375000 0.236947
vt 0.125000 0.506048
vt 0.375000 0.250000
vt 0.125000 0.501550
vt 0.375000 0.250000
vt 0.625000 0.218333
vt 0.625000 0.250000
vt 0.625000 0.228119
vt 0.625000 0.236947
vt 0.625000 0.250000
vt 0.625000 0.250000
vt 0.625000 0.031667
vt 0.625000 1.000000
vt 0.625000 0.021881
vt 0.625000 0.013053
vt 0.625000 0.000000
vt 0.625000 1.000000
vt 0.625000 1.000000
vt 0.875000 0.500000
vt 0.625000 0.250000
vt 0.875000 0.531667
vt 0.625000 0.218333
vt 0.875000 0.501550
vt 0.625000 0.250000
vt 0.875000 0.506048
vt 0.625000 0.250000
vt 0.875000 0.513053
vt 0.625000 0.236947
vt 0.875000 0.521881
vt 0.625000 0.228119
vt 0.875000 0.718333
vt 0.625000 0.031667
vt 0.875000 0.750000
vt 0.625000 1.000000
vt 0.875000 0.728119
vt 0.625000 0.021881
vt 0.875000 0.736946
vt 0.625000 0.013053
vt 0.875000 0.743952
vt 0.625000 0.000000
vt 0.625000 1.000000
vt 0.875000 0.748450
vt 0.625000 1.000000
vt 0.625000 0.483036
vt 0.625000 0.531667
vt 0.625000 0.488278
vt 0.625000 0.493007
vt 0.625000 0.513053
vt 0.625000 0.521881
vt 0.625000 0.766964
vt 0.625000 0.718333
vt 0.625000 0.761722
vt 0.625000 0.756993
vt 0.625000 0.736947
vt 0.625000 0.728119
vt 0.625000 0.578056
vt 0.625000 0.551667
vt 0.644792 0.583333
vt 0.625000 0.570569
vt 0.625000 0.575719
vt 0.633158 0.582829
vt 0.638676 0.583204
vt 0.644792 0.666667
vt 0.625000 0.671944
vt 0.625000 0.698333
vt 0.638676 0.666796
vt 0.633158 0.667171
vt 0.625000 0.674281
vt 0.625000 0.679431
vt 0.625000 0.250000
vt 0.625000 0.218333
vt 0.625000 0.250000
vt 0.625000 0.250000
vt 0.625000 0.236947
vt 0.625000 0.228119
vt 0.625000 1.000000
vt 0.625000 0.031667
vt 0.625000 1.000000
vt 0.625000 0.000000
vt 0.625000 1.000000
vt 0.625000 0.013053
vt 0.625000 0.021881
s 0
f 177/236/1 26/30/1 20/24/1 81/99/1
f 41/47/2 5/5/2 69/82/2 71/85/2 72/87/2 73/89/2 74/91/2 70/83/2 39/44/2
f 37/41/2 40/46/2 11/12/2 129/167/2 131/171/2 132/173/2 133/175/2 134/177/2 130/169/2
f 75/93/3 82/100/3 7/7/3 100/121/3
f 63/76/3 2/2/3 178/238/3 166/224/3
f 37/41/2 57/65/2 59/68/2 60/70/2 61/72/2 62/74/2 58/67/2 6/6/2 40/46/2
f 1/1/3 52/60/3 160/218/3 171/230/3
f 6/6/3 1/1/3 2/2/3 5/5/3
f 5/5/3 2/2/3 63/76/3 69/82/3
f 40/46/2 6/6/2 5/5/2 41/47/2
f 2/2/3 1/1/3 171/229/3 178/237/3
f 135/179/4 13/15/4 15/17/4 148/195/4
f 88/107/1 44/50/1 48/55/1 106/132/1
f 17/21/5 4/4/5 3/3/5 18/22/5
f 159/217/1 50/58/1 44/50/1 88/107/1
f 49/57/5 7/7/5 8/8/5 47/54/5
f 7/7/5 49/57/5 46/53/5 99/119/5 101/122/5 102/124/5 103/126/5 104/128/5 100/121/5
f 42/48/6 76/94/6 99/120/6 46/52/6
f 26/30/1 23/27/1 45/51/1 20/24/1
f 44/50/1 50/58/1 183/243/1 136/180/1
f 93/112/3 87/106/3 105/130/3 8/8/3
f 105/130/5 107/133/5 108/135/5 109/137/5 110/139/5 106/131/5 48/56/5 47/54/5 8/8/5
f 41/47/2 39/44/2 111/141/2 113/145/2 114/147/2 115/150/2 116/152/2 112/143/2 9/9/2
f 12/14/4 118/155/4 190/250/4 25/29/4
f 21/25/6 165/223/6 76/94/6 42/48/6
f 42/48/6 46/52/6 154/207/6 142/186/6
f 27/31/6 172/231/6 94/114/6 19/23/6
f 166/224/3 178/238/3 82/100/3 75/93/3
f 81/99/2 20/24/2 19/23/2 94/114/2
f 20/24/2 45/51/2 43/49/2 19/23/2
f 123/161/4 10/11/4 24/28/4 184/244/4
f 39/45/6 38/43/6 117/154/6 111/142/6
f 9/10/4 12/14/4 10/11/4 11/13/4
f 48/55/1 44/50/1 136/180/1 147/193/1
f 47/54/5 48/56/5 147/192/5 149/196/5 150/198/5 151/200/5 152/202/5 148/194/5 15/18/5
f 184/244/4 24/28/4 13/15/4 135/179/4
f 14/16/4 16/20/4 15/17/4 13/15/4
f 21/25/6 42/48/6 142/186/6 189/249/6
f 25/29/4 190/250/4 141/185/4 14/16/4
f 40/46/2 41/47/2 9/9/2 11/12/2
f 25/29/4 14/16/4 13/15/4 24/28/4
f 36/40/1 37/42/1 130/170/1 124/162/1
f 112/144/4 118/155/4 12/14/4 9/10/4
f 46/53/5 49/57/5 16/19/5 153/204/5 155/208/5 156/210/5 157/212/5 158/215/5 154/206/5
f 49/57/5 47/54/5 15/18/5 16/19/5
f 171/230/3 160/218/3 87/106/3 93/112/3
f 7/7/3 82/101/3 93/113/3 8/8/3
f 22/26/6 27/31/6 19/23/6 43/49/6
f 26/30/4 27/31/4 17/21/4 18/22/4
f 4/4/6 17/21/6 27/31/6 22/26/6
f 14/16/4 141/185/4 153/205/4 16/20/4
f 12/14/4 25/29/4 24/28/4 10/11/4
f 38/43/6 21/25/6 189/249/6 117/154/6
f 50/58/1 36/40/1 124/162/1 183/243/1
f 11/13/4 10/11/4 123/161/4 129/168/4
f 51/59/1 36/40/1 50/58/1 159/217/1
f 18/22/1 3/3/1 23/27/1 26/30/1
f 38/43/6 64/77/6 165/223/6 21/25/6
f 26/30/5 177/236/5 172/231/5 27/31/5
f 37/42/1 36/40/1 51/59/1 57/66/1
f 70/84/6 64/77/6 38/43/6 39/45/6
f 31/35/5 30/34/5 28/32/5 29/33/5
f 35/39/2 33/37/2 32/36/2 34/38/2
f 30/34/3 31/35/3 35/39/3 34/38/3
f 28/32/1 30/34/1 34/38/1 32/36/1
f 31/35/6 29/33/6 33/37/6 35/39/6
f 29/33/4 28/32/4 32/36/4 33/37/4
f 23/27/3 22/26/3 43/49/3 45/51/3
f 3/3/3 4/4/3 22/26/3 23/27/3
f 52/60/7 58/67/7 62/75/7 56/64/7
f 56/64/8 62/75/8 61/73/8 55/63/8
f 55/63/9 61/73/9 60/71/9 54/62/9
f 54/62/10 60/71/10 59/69/10 53/61/10
f 53/61/11 59/69/11 57/66/11 51/59/11
f 64/77/12 70/84/12 74/92/12 68/81/12
f 68/81/13 74/92/13 73/90/13 67/80/13
f 67/80/14 73/90/14 72/88/14 66/79/14
f 66/79/15 72/88/15 71/86/15 65/78/15
f 65/78/16 71/86/16 69/82/16 63/76/16
f 172/231/17 177/236/17 179/239/17 176/235/17
f 176/235/18 179/239/18 180/240/18 175/234/18
f 175/234/19 180/240/19 181/241/19 174/233/19
f 174/233/20 181/241/20 182/242/20 173/232/20
f 173/232/21 182/242/21 178/237/21 171/229/21
f 160/218/7 52/60/7 56/64/7 164/222/7
f 164/222/8 56/64/8 55/63/8 163/221/8
f 163/221/9 55/63/9 54/62/9 162/220/9
f 162/220/10 54/62/10 53/61/10 161/219/10
f 161/219/11 53/61/11 51/59/11 159/217/11
f 166/224/16 75/93/16 77/95/16 170/228/16
f 170/228/15 77/95/15 78/96/15 169/227/15
f 169/227/14 78/96/14 79/97/14 168/226/14
f 168/226/13 79/97/13 80/98/13 167/225/13
f 167/225/12 80/98/12 76/94/12 165/223/12
f 171/230/16 93/112/16 95/115/16 173/232/16
f 173/232/15 95/115/15 96/116/15 174/233/15
f 174/233/14 96/116/14 97/117/14 175/234/14
f 175/234/13 97/117/13 98/118/13 176/235/13
f 176/235/12 98/118/12 94/114/12 172/231/12
f 177/236/11 81/99/11 83/102/11 179/239/11
f 179/239/10 83/102/10 84/103/10 180/240/10
f 180/240/9 84/103/9 85/104/9 181/241/9
f 181/241/8 85/104/8 86/105/8 182/242/8
f 182/242/7 86/105/7 82/100/7 178/238/7
f 88/107/11 106/132/11 110/140/11 92/111/11
f 92/111/10 110/140/10 109/138/10 91/110/10
f 91/110/9 109/138/9 108/136/9 90/109/9
f 90/109/8 108/136/8 107/134/8 89/108/8
f 89/108/7 107/134/7 105/130/7 87/106/7
f 75/93/16 100/121/16 104/129/16 77/95/16
f 77/95/15 104/129/15 103/127/15 78/96/15
f 78/96/14 103/127/14 102/125/14 79/97/14
f 79/97/13 102/125/13 101/123/13 80/98/13
f 80/98/12 101/123/12 99/120/12 76/94/12
f 81/99/22 94/114/22 98/118/22 83/102/22
f 83/102/23 98/118/23 97/117/23 84/103/23
f 84/103/24 97/117/24 96/116/24 85/104/24
f 85/104/25 96/116/25 95/115/25 86/105/25
f 86/105/26 95/115/26 93/113/26 82/101/26
f 111/142/27 117/154/27 119/156/27 113/146/27
f 113/146/28 119/156/28 120/158/28 114/148/28
f 114/149/29 120/157/29 121/159/29 115/151/29
f 115/151/30 121/159/30 122/160/30 116/153/30
f 116/153/31 122/160/31 118/155/31 112/144/31
f 124/162/32 130/170/32 134/178/32 128/166/32
f 128/166/33 134/178/33 133/176/33 127/165/33
f 127/165/34 133/176/34 132/174/34 126/164/34
f 126/164/35 132/174/35 131/172/35 125/163/35
f 125/163/36 131/172/36 129/168/36 123/161/36
f 184/244/36 135/179/36 137/181/36 188/248/36
f 188/248/35 137/181/35 138/182/35 187/247/35
f 187/247/34 138/182/34 139/183/34 186/246/34
f 186/246/33 139/183/33 140/184/33 185/245/33
f 185/245/32 140/184/32 136/180/32 183/243/32
f 190/250/31 118/155/31 122/160/31 194/255/31
f 194/255/30 122/160/30 121/159/30 193/254/30
f 193/254/29 121/159/29 120/157/29 192/252/29
f 192/253/28 120/158/28 119/156/28 191/251/28
f 191/251/27 119/156/27 117/154/27 189/249/27
f 147/193/32 136/180/32 140/184/32 149/197/32
f 149/197/33 140/184/33 139/183/33 150/199/33
f 150/199/34 139/183/34 138/182/34 151/201/34
f 151/201/35 138/182/35 137/181/35 152/203/35
f 152/203/36 137/181/36 135/179/36 148/195/36
f 153/205/31 141/185/31 143/187/31 155/209/31
f 155/209/30 143/187/30 144/188/30 156/211/30
f 156/211/29 144/188/29 145/189/29 157/213/29
f 157/214/28 145/190/28 146/191/28 158/216/28
f 158/216/27 146/191/27 142/186/27 154/207/27
f 87/106/7 160/218/7 164/222/7 89/108/7
f 89/108/8 164/222/8 163/221/8 90/109/8
f 90/109/9 163/221/9 162/220/9 91/110/9
f 91/110/10 162/220/10 161/219/10 92/111/10
f 92/111/11 161/219/11 159/217/11 88/107/11
f 63/76/16 166/224/16 170/228/16 65/78/16
f 65/78/15 170/228/15 169/227/15 66/79/15
f 66/79/14 169/227/14 168/226/14 67/80/14
f 67/80/13 168/226/13 167/225/13 68/81/13
f 68/81/12 167/225/12 165/223/12 64/77/12
f 123/161/36 184/244/36 188/248/36 125/163/36
f 125/163/35 188/248/35 187/247/35 126/164/35
f 126/164/34 187/247/34 186/246/34 127/165/34
f 127/165/33 186/246/33 185/245/33 128/166/33
f 128/166/32 185/245/32 183/243/32 124/162/32
f 141/185/31 190/250/31 194/255/31 143/187/31
f 143/187/30 194/255/30 193/254/30 144/188/30
f 144/188/29 193/254/29 192/252/29 145/189/29
f 145/190/28 192/253/28 191/251/28 146/191/28
f 146/191/27 191/251/27 189/249/27 142/186/27
f 58/67/3 52/60/3 1/1/3 6/6/3
