# Blender 3.4.1
# www.blender.org
o Cube.006
v 0.262500 1.155000 0.777000
v 0.252000 1.155000 0.766500
v 0.262500 1.144500 0.766500
v 0.259255 1.155000 0.776486
v 0.256329 1.155000 0.774995
v 0.262500 1.151755 0.776486
v 0.259150 1.151669 0.775877
v 0.256472 1.151777 0.774470
v 0.262500 1.148829 0.774995
v 0.259269 1.148966 0.774462
v 0.256944 1.149444 0.773465
v 0.252514 1.151755 0.766500
v 0.254005 1.148829 0.766500
v 0.252514 1.155000 0.769745
v 0.253123 1.151650 0.769831
v 0.254530 1.148971 0.769723
v 0.254005 1.155000 0.772671
v 0.254538 1.151769 0.772534
v 0.255535 1.149444 0.772056
v 0.262500 1.145014 0.769745
v 0.262500 1.146505 0.772671
v 0.259255 1.145014 0.766500
v 0.259169 1.145623 0.769850
v 0.259277 1.147030 0.772528
v 0.256329 1.146505 0.766500
v 0.256466 1.147038 0.769731
v 0.256944 1.148035 0.772056
v 0.262500 1.155000 0.651000
v 0.262500 1.144500 0.661500
v 0.252000 1.155000 0.661500
v 0.262500 1.151755 0.651514
v 0.262500 1.148829 0.653005
v 0.259255 1.155000 0.651514
v 0.259169 1.151650 0.652123
v 0.259277 1.148971 0.653530
v 0.256329 1.155000 0.653005
v 0.256466 1.151769 0.653537
v 0.256944 1.149444 0.654534
v 0.259255 1.145014 0.661500
v 0.256329 1.146505 0.661500
v 0.262500 1.145014 0.658255
v 0.259150 1.145623 0.658169
v 0.256471 1.147030 0.658277
v 0.262500 1.146505 0.655329
v 0.259269 1.147038 0.655466
v 0.256944 1.148035 0.655944
v 0.252514 1.155000 0.658255
v 0.254005 1.155000 0.655329
v 0.252514 1.151755 0.661500
v 0.253123 1.151669 0.658150
v 0.254530 1.151777 0.655471
v 0.254005 1.148829 0.661500
v 0.254537 1.148966 0.658269
v 0.255535 1.149444 0.655944
v 0.262500 1.197000 0.777000
v 0.262500 1.207500 0.766500
v 0.252000 1.197000 0.766500
v 0.262500 1.200245 0.776486
v 0.262500 1.203171 0.774995
v 0.259255 1.197000 0.776486
v 0.259169 1.200350 0.775877
v 0.259277 1.203029 0.774470
v 0.256329 1.197000 0.774995
v 0.256466 1.200231 0.774462
v 0.256944 1.202556 0.773465
v 0.259255 1.206986 0.766500
v 0.256329 1.205495 0.766500
v 0.262500 1.206986 0.769745
v 0.259150 1.206377 0.769831
v 0.256471 1.204970 0.769723
v 0.262500 1.205495 0.772671
v 0.259269 1.204963 0.772534
v 0.256944 1.203966 0.772056
v 0.252514 1.197000 0.769745
v 0.254005 1.197000 0.772671
v 0.252514 1.200245 0.766500
v 0.253123 1.200331 0.769850
v 0.254530 1.200223 0.772528
v 0.254005 1.203171 0.766500
v 0.254537 1.203034 0.769731
v 0.255535 1.202556 0.772056
v 0.262500 1.197000 0.651000
v 0.252000 1.197000 0.661500
v 0.262500 1.207500 0.661500
v 0.259255 1.197000 0.651514
v 0.256329 1.197000 0.653005
v 0.262500 1.200245 0.651514
v 0.259150 1.200331 0.652123
v 0.256472 1.200223 0.653530
v 0.262500 1.203171 0.653005
v 0.259269 1.203034 0.653537
v 0.256944 1.202556 0.654534
v 0.252514 1.200245 0.661500
v 0.254005 1.203171 0.661500
v 0.252514 1.197000 0.658255
v 0.253123 1.200350 0.658169
v 0.254530 1.203029 0.658277
v 0.254005 1.197000 0.655329
v 0.254538 1.200231 0.655466
v 0.255535 1.202556 0.655944
v 0.262500 1.206986 0.658255
v 0.262500 1.205495 0.655329
v 0.259255 1.206986 0.661500
v 0.259169 1.206377 0.658150
v 0.259277 1.204970 0.655471
v 0.256329 1.205495 0.661500
v 0.256466 1.204963 0.658269
v 0.256944 1.203966 0.655944
v 0.273000 1.197000 0.777000
v 0.273000 1.207500 0.766500
v 0.273000 1.200245 0.776486
v 0.273000 1.203172 0.774995
v 0.273000 1.205495 0.772672
v 0.273000 1.206986 0.769745
v 0.273000 1.144500 0.766500
v 0.273000 1.155000 0.777000
v 0.273000 1.145014 0.769745
v 0.273000 1.146505 0.772672
v 0.273000 1.148828 0.774995
v 0.273000 1.151755 0.776486
v 0.273000 1.155000 0.651000
v 0.273000 1.144500 0.661500
v 0.273000 1.151755 0.651514
v 0.273000 1.148828 0.653005
v 0.273000 1.146505 0.655328
v 0.273000 1.145014 0.658255
v 0.273000 1.207500 0.661500
v 0.273000 1.197000 0.651000
v 0.273000 1.206986 0.658255
v 0.273000 1.205495 0.655328
v 0.273000 1.203172 0.653005
v 0.273000 1.200245 0.651514
v 0.283500 1.197000 0.777000
v 0.294000 1.197000 0.766500
v 0.283500 1.207500 0.766500
v 0.286745 1.197000 0.776486
v 0.289671 1.197000 0.774995
v 0.283500 1.200245 0.776486
v 0.286850 1.200331 0.775877
v 0.289528 1.200223 0.774470
v 0.283500 1.203171 0.774995
v 0.286731 1.203034 0.774462
v 0.289056 1.202556 0.773465
v 0.293486 1.200245 0.766500
v 0.291995 1.203171 0.766500
v 0.293486 1.197000 0.769745
v 0.292877 1.200350 0.769831
v 0.291470 1.203029 0.769723
v 0.291995 1.197000 0.772671
v 0.291462 1.200231 0.772534
v 0.290465 1.202556 0.772056
v 0.283500 1.206986 0.769745
v 0.283500 1.205495 0.772671
v 0.286745 1.206986 0.766500
v 0.286831 1.206377 0.769850
v 0.286723 1.204970 0.772528
v 0.289671 1.205495 0.766500
v 0.289534 1.204963 0.769731
v 0.289056 1.203966 0.772056
v 0.283500 1.155000 0.777000
v 0.283500 1.144500 0.766500
v 0.294000 1.155000 0.766500
v 0.283500 1.151755 0.776486
v 0.283500 1.148829 0.774995
v 0.286745 1.155000 0.776486
v 0.286831 1.151650 0.775877
v 0.286723 1.148971 0.774470
v 0.289671 1.155000 0.774995
v 0.289534 1.151769 0.774462
v 0.289056 1.149444 0.773465
v 0.286745 1.145014 0.766500
v 0.289671 1.146505 0.766500
v 0.283500 1.145014 0.769745
v 0.286850 1.145623 0.769831
v 0.289528 1.147030 0.769723
v 0.283500 1.146505 0.772671
v 0.286731 1.147038 0.772534
v 0.289056 1.148035 0.772056
v 0.293486 1.155000 0.769745
v 0.291995 1.155000 0.772671
v 0.293486 1.151755 0.766500
v 0.292877 1.151669 0.769850
v 0.291470 1.151777 0.772528
v 0.291995 1.148829 0.766500
v 0.291463 1.148966 0.769731
v 0.290465 1.149444 0.772056
v 0.283500 1.155000 0.651000
v 0.294000 1.155000 0.661500
v 0.283500 1.144500 0.661500
v 0.286745 1.155000 0.651514
v 0.289671 1.155000 0.653005
v 0.283500 1.151755 0.651514
v 0.286850 1.151669 0.652123
v 0.289528 1.151777 0.653530
v 0.283500 1.148829 0.653005
v 0.286731 1.148966 0.653537
v 0.289056 1.149444 0.654534
v 0.293486 1.151755 0.661500
v 0.291995 1.148829 0.661500
v 0.293486 1.155000 0.658255
v 0.292877 1.151650 0.658169
v 0.291470 1.148971 0.658277
v 0.291995 1.155000 0.655329
v 0.291462 1.151769 0.655466
v 0.290465 1.149444 0.655944
v 0.283500 1.145014 0.658255
v 0.283500 1.146505 0.655329
v 0.286745 1.145014 0.661500
v 0.286831 1.145623 0.658150
v 0.286723 1.147030 0.655471
v 0.289671 1.146505 0.661500
v 0.289534 1.147038 0.658269
v 0.289056 1.148035 0.655944
v 0.283500 1.197000 0.651000
v 0.283500 1.207500 0.661500
v 0.294000 1.197000 0.661500
v 0.283500 1.200245 0.651514
v 0.283500 1.203171 0.653005
v 0.286745 1.197000 0.651514
v 0.286831 1.200350 0.652123
v 0.286723 1.203029 0.653530
v 0.289671 1.197000 0.653005
v 0.289534 1.200231 0.653537
v 0.289056 1.202556 0.654534
v 0.286745 1.206986 0.661500
v 0.289671 1.205495 0.661500
v 0.283500 1.206986 0.658255
v 0.286850 1.206377 0.658169
v 0.289528 1.204970 0.658277
v 0.283500 1.205495 0.655329
v 0.286731 1.204963 0.655466
v 0.289056 1.203966 0.655944
v 0.293486 1.197000 0.658255
v 0.291995 1.197000 0.655329
v 0.293486 1.200245 0.661500
v 0.292877 1.200331 0.658150
v 0.291470 1.200223 0.655471
v 0.291995 1.203171 0.661500
v 0.291463 1.203034 0.658269
v 0.290465 1.202556 0.655944
vn -0.0000 -1.0000 -0.0000
vn -0.0000 1.0000 -0.0000
vn -0.0000 -0.0000 -1.0000
vn -1.0000 -0.0000 -0.0000
vn -0.0000 -0.0000 1.0000
vn 1.0000 -0.0000 -0.0000
vn -0.1635 -0.1635 0.9729
vn -0.4561 -0.1543 0.8764
vn -0.6997 -0.1450 0.6996
vn -0.1556 -0.4557 0.8764
vn -0.4314 -0.4313 0.7924
vn -0.6449 -0.4090 0.6456
vn -0.9729 -0.1635 0.1635
vn -0.8764 -0.4562 0.1543
vn -0.6996 -0.6997 0.1450
vn -0.8764 -0.1556 0.4557
vn -0.7924 -0.4314 0.4314
vn -0.6456 -0.6449 0.4090
vn -0.1635 -0.9729 0.1635
vn -0.1543 -0.8764 0.4562
vn -0.1450 -0.6996 0.6997
vn -0.4557 -0.8764 0.1556
vn -0.4313 -0.7924 0.4314
vn -0.4090 -0.6456 0.6449
vn -0.5774 -0.5773 0.5773
vn -0.1635 -0.1635 -0.9729
vn -0.1543 -0.4562 -0.8764
vn -0.1450 -0.6997 -0.6996
vn -0.4557 -0.1556 -0.8764
vn -0.4314 -0.4314 -0.7924
vn -0.4091 -0.6449 -0.6455
vn -0.1635 -0.9729 -0.1635
vn -0.4562 -0.8764 -0.1543
vn -0.6997 -0.6996 -0.1450
vn -0.1556 -0.8764 -0.4557
vn -0.4314 -0.7924 -0.4313
vn -0.6449 -0.6456 -0.4090
vn -0.9729 -0.1635 -0.1635
vn -0.8764 -0.1543 -0.4562
vn -0.6996 -0.1450 -0.6997
vn -0.8764 -0.4557 -0.1556
vn -0.7924 -0.4314 -0.4313
vn -0.6455 -0.4090 -0.6450
vn -0.5774 -0.5773 -0.5773
vn -0.1635 0.1635 0.9729
vn -0.1543 0.4562 0.8764
vn -0.1450 0.6997 0.6996
vn -0.4557 0.1556 0.8764
vn -0.4314 0.4314 0.7924
vn -0.4091 0.6449 0.6456
vn -0.1635 0.9729 0.1635
vn -0.4561 0.8764 0.1543
vn -0.6997 0.6996 0.1450
vn -0.1556 0.8764 0.4557
vn -0.4314 0.7924 0.4313
vn -0.6449 0.6456 0.4090
vn -0.9729 0.1635 0.1635
vn -0.8764 0.1543 0.4562
vn -0.6996 0.1450 0.6997
vn -0.8764 0.4557 0.1556
vn -0.7924 0.4314 0.4313
vn -0.6455 0.4091 0.6450
vn -0.5774 0.5773 0.5773
vn -0.1635 0.1635 -0.9729
vn -0.4561 0.1543 -0.8764
vn -0.6997 0.1450 -0.6996
vn -0.1556 0.4557 -0.8764
vn -0.4313 0.4313 -0.7924
vn -0.6449 0.4090 -0.6455
vn -0.9729 0.1635 -0.1635
vn -0.8764 0.4561 -0.1543
vn -0.6996 0.6997 -0.1450
vn -0.8764 0.1556 -0.4557
vn -0.7924 0.4314 -0.4314
vn -0.6456 0.6449 -0.4090
vn -0.1635 0.9729 -0.1635
vn -0.1543 0.8764 -0.4562
vn -0.1450 0.6996 -0.6997
vn -0.4557 0.8764 -0.1556
vn -0.4313 0.7924 -0.4314
vn -0.4090 0.6455 -0.6450
vn -0.5774 0.5773 -0.5773
vn 0.1635 0.1635 0.9729
vn 0.4561 0.1543 0.8764
vn 0.6997 0.1450 0.6996
vn 0.1556 0.4557 0.8764
vn 0.4313 0.4313 0.7924
vn 0.6449 0.4090 0.6456
vn 0.9729 0.1635 0.1635
vn 0.8764 0.4561 0.1543
vn 0.6996 0.6997 0.1450
vn 0.8764 0.1556 0.4557
vn 0.7924 0.4314 0.4314
vn 0.6455 0.6449 0.4090
vn 0.1635 0.9729 0.1635
vn 0.1543 0.8764 0.4562
vn 0.1450 0.6996 0.6997
vn 0.4557 0.8764 0.1556
vn 0.4314 0.7924 0.4314
vn 0.4090 0.6456 0.6450
vn 0.5774 0.5773 0.5773
vn 0.1635 -0.1635 0.9729
vn 0.1543 -0.4562 0.8764
vn 0.1450 -0.6997 0.6996
vn 0.4557 -0.1556 0.8764
vn 0.4313 -0.4314 0.7924
vn 0.4090 -0.6449 0.6456
vn 0.1635 -0.9729 0.1635
vn 0.4562 -0.8764 0.1543
vn 0.6997 -0.6996 0.1450
vn 0.1556 -0.8764 0.4557
vn 0.4314 -0.7924 0.4313
vn 0.6449 -0.6456 0.4090
vn 0.9729 -0.1635 0.1635
vn 0.8764 -0.1543 0.4561
vn 0.6996 -0.1450 0.6997
vn 0.8764 -0.4557 0.1556
vn 0.7924 -0.4313 0.4314
vn 0.6456 -0.4090 0.6449
vn 0.5774 -0.5773 0.5773
vn 0.1635 -0.1635 -0.9729
vn 0.4561 -0.1543 -0.8764
vn 0.6997 -0.1450 -0.6996
vn 0.1556 -0.4557 -0.8764
vn 0.4314 -0.4313 -0.7924
vn 0.6449 -0.4090 -0.6456
vn 0.9729 -0.1635 -0.1635
vn 0.8764 -0.4562 -0.1543
vn 0.6996 -0.6997 -0.1450
vn 0.8764 -0.1556 -0.4557
vn 0.7924 -0.4314 -0.4314
vn 0.6455 -0.6449 -0.4090
vn 0.1635 -0.9729 -0.1635
vn 0.1543 -0.8764 -0.4561
vn 0.1450 -0.6996 -0.6997
vn 0.4557 -0.8764 -0.1556
vn 0.4313 -0.7924 -0.4313
vn 0.4091 -0.6455 -0.6449
vn 0.5774 -0.5773 -0.5773
vn 0.1635 0.1635 -0.9729
vn 0.1543 0.4562 -0.8764
vn 0.1450 0.6997 -0.6996
vn 0.4557 0.1556 -0.8764
vn 0.4314 0.4314 -0.7924
vn 0.4091 0.6449 -0.6456
vn 0.1635 0.9729 -0.1635
vn 0.4561 0.8764 -0.1543
vn 0.6997 0.6996 -0.1450
vn 0.1556 0.8764 -0.4557
vn 0.4314 0.7924 -0.4314
vn 0.6449 0.6456 -0.4090
vn 0.9729 0.1635 -0.1635
vn 0.8764 0.1543 -0.4562
vn 0.6996 0.1450 -0.6997
vn 0.8765 0.4557 -0.1556
vn 0.7924 0.4314 -0.4313
vn 0.6455 0.4090 -0.6450
vn 0.5774 0.5773 -0.5773
vn -0.9877 -0.0000 0.1565
vn -0.8910 -0.0000 0.4540
vn -0.7071 -0.0000 0.7071
vn -0.4540 -0.0000 0.8910
vn -0.1565 -0.0000 0.9877
vn -0.9877 -0.0000 -0.1565
vn -0.8910 -0.0000 -0.4540
vn -0.7071 -0.0000 -0.7071
vn -0.4540 -0.0000 -0.8910
vn -0.1565 -0.0000 -0.9877
vn -0.9877 -0.1565 -0.0000
vn -0.8910 -0.4540 -0.0000
vn -0.7071 -0.7071 -0.0000
vn -0.4540 -0.8910 -0.0000
vn -0.1565 -0.9877 -0.0000
vn -0.1564 0.9877 -0.0000
vn -0.4540 0.8910 -0.0000
vn -0.7071 0.7071 -0.0000
vn -0.8910 0.4540 -0.0000
vn -0.9877 0.1565 -0.0000
vn -0.0000 -0.1564 -0.9877
vn -0.0000 -0.4540 -0.8910
vn -0.0000 -0.7071 -0.7071
vn -0.0000 -0.8910 -0.4540
vn -0.0000 -0.9877 -0.1565
vn -0.0000 -0.1564 0.9877
vn -0.0000 -0.4540 0.8910
vn -0.0000 -0.7071 0.7071
vn -0.0000 -0.8910 0.4540
vn -0.0000 -0.9877 0.1565
vn -0.0000 0.9877 0.1564
vn -0.0000 0.8910 0.4540
vn -0.0000 0.7071 0.7071
vn -0.0000 0.4540 0.8910
vn -0.0000 0.1564 0.9877
vn -0.0000 0.1564 -0.9877
vn -0.0000 0.4540 -0.8910
vn -0.0000 0.7071 -0.7071
vn -0.0000 0.8910 -0.4540
vn -0.0000 0.9877 -0.1564
vn 0.1565 -0.0000 0.9877
vn 0.4540 -0.0000 0.8910
vn 0.7071 -0.0000 0.7071
vn 0.8910 -0.0000 0.4540
vn 0.9877 -0.0000 0.1565
vn 0.1565 -0.0000 -0.9877
vn 0.4540 -0.0000 -0.8910
vn 0.7071 -0.0000 -0.7071
vn 0.8910 -0.0000 -0.4540
vn 0.9877 -0.0000 -0.1565
vn 0.1565 -0.9877 -0.0000
vn 0.4540 -0.8910 -0.0000
vn 0.7071 -0.7071 -0.0000
vn 0.8910 -0.4540 -0.0000
vn 0.9877 -0.1565 -0.0000
vn 0.9877 0.1565 -0.0000
vn 0.8910 0.4540 -0.0000
vn 0.7071 0.7071 -0.0000
vn 0.4540 0.8910 -0.0000
vn 0.1564 0.9877 -0.0000
vt 0.625000 0.500000
vt 0.625000 0.500000
vt 0.625000 0.500000
vt 0.625000 0.500000
vt 0.625000 0.500000
vt 0.625000 0.500000
vt 0.625000 0.500000
vt 0.625000 0.500000
vt 0.625000 0.500000
vt 0.625000 0.500000
vt 0.625000 0.500000
vt 0.625000 0.500000
vt 0.625000 0.500000
vt 0.625000 0.500000
vt 0.625000 0.500000
vt 0.625000 0.500000
vt 0.625000 0.500000
vt 0.625000 0.500000
vt 0.625000 0.500000
vt 0.625000 0.500000
vt 0.625000 0.500000
vt 0.625000 0.500000
vt 0.625000 0.500000
vt 0.625000 0.500000
vt 0.625000 0.500000
vt 0.625000 0.500000
vt 0.625000 0.500000
vt 0.625000 0.500000
vt 0.625000 0.500000
vt 0.625000 0.500000
vt 0.625000 0.500000
vt 0.625000 0.500000
vt 0.625000 0.500000
vt 0.625000 0.500000
vt 0.625000 0.500000
vt 0.625000 0.500000
vt 0.625000 0.500000
vt 0.625000 0.500000
vt 0.625000 0.500000
vt 0.625000 0.500000
vt 0.625000 0.500000
vt 0.625000 0.500000
vt 0.625000 0.500000
vt 0.625000 0.500000
vt 0.625000 0.500000
vt 0.625000 0.500000
vt 0.625000 0.500000
vt 0.625000 0.500000
vt 0.625000 0.500000
vt 0.625000 0.500000
vt 0.625000 0.500000
vt 0.625000 0.500000
vt 0.625000 0.500000
vt 0.625000 0.500000
vt 0.625000 0.500000
vt 0.625000 0.500000
vt 0.625000 0.500000
vt 0.625000 0.500000
vt 0.625000 0.500000
vt 0.625000 0.500000
vt 0.625000 0.500000
vt 0.625000 0.500000
vt 0.625000 0.500000
vt 0.625000 0.500000
vt 0.625000 0.500000
vt 0.625000 0.500000
vt 0.625000 0.500000
vt 0.625000 0.500000
vt 0.625000 0.500000
vt 0.625000 0.500000
vt 0.625000 0.500000
vt 0.625000 0.500000
vt 0.625000 0.500000
vt 0.625000 0.500000
vt 0.625000 0.500000
vt 0.625000 0.500000
vt 0.625000 0.500000
vt 0.625000 0.500000
vt 0.625000 0.500000
vt 0.625000 0.500000
vt 0.625000 0.500000
vt 0.625000 0.500000
vt 0.625000 0.500000
vt 0.625000 0.500000
vt 0.625000 0.500000
vt 0.625000 0.500000
vt 0.625000 0.500000
vt 0.625000 0.500000
vt 0.625000 0.500000
vt 0.625000 0.500000
vt 0.625000 0.500000
vt 0.625000 0.500000
vt 0.625000 0.500000
vt 0.625000 0.500000
vt 0.625000 0.500000
vt 0.625000 0.500000
vt 0.625000 0.500000
vt 0.625000 0.500000
vt 0.625000 0.500000
vt 0.625000 0.500000
vt 0.625000 0.500000
vt 0.625000 0.500000
vt 0.625000 0.500000
vt 0.625000 0.500000
vt 0.625000 0.500000
vt 0.625000 0.500000
vt 0.625000 0.500000
vt 0.625000 0.500000
vt 0.625000 0.500000
vt 0.625000 0.500000
vt 0.625000 0.500000
vt 0.625000 0.500000
vt 0.625000 0.500000
vt 0.625000 0.500000
vt 0.625000 0.500000
vt 0.625000 0.500000
vt 0.625000 0.500000
vt 0.625000 0.500000
vt 0.625000 0.500000
vt 0.625000 0.500000
vt 0.625000 0.500000
vt 0.625000 0.500000
vt 0.625000 0.500000
vt 0.625000 0.500000
vt 0.625000 0.500000
vt 0.625000 0.500000
vt 0.625000 0.500000
vt 0.625000 0.500000
vt 0.625000 0.500000
vt 0.625000 0.500000
vt 0.625000 0.500000
vt 0.625000 0.500000
vt 0.625000 0.500000
vt 0.625000 0.500000
vt 0.625000 0.500000
vt 0.625000 0.500000
vt 0.625000 0.500000
vt 0.625000 0.500000
vt 0.625000 0.500000
vt 0.625000 0.500000
vt 0.625000 0.500000
vt 0.625000 0.500000
vt 0.625000 0.500000
vt 0.625000 0.500000
vt 0.625000 0.500000
vt 0.625000 0.500000
vt 0.625000 0.500000
vt 0.625000 0.500000
vt 0.625000 0.500000
vt 0.625000 0.500000
vt 0.625000 0.500000
vt 0.625000 0.500000
vt 0.625000 0.500000
vt 0.625000 0.500000
vt 0.625000 0.500000
vt 0.625000 0.500000
vt 0.625000 0.500000
vt 0.625000 0.500000
vt 0.625000 0.500000
vt 0.625000 0.500000
vt 0.625000 0.500000
vt 0.625000 0.500000
vt 0.625000 0.500000
vt 0.625000 0.500000
vt 0.625000 0.500000
vt 0.625000 0.500000
vt 0.625000 0.500000
vt 0.625000 0.500000
vt 0.625000 0.500000
vt 0.625000 0.500000
vt 0.625000 0.500000
vt 0.625000 0.500000
vt 0.625000 0.500000
vt 0.625000 0.500000
vt 0.625000 0.500000
vt 0.625000 0.500000
vt 0.625000 0.500000
vt 0.625000 0.500000
vt 0.625000 0.500000
vt 0.625000 0.500000
vt 0.625000 0.500000
vt 0.625000 0.500000
vt 0.625000 0.500000
vt 0.625000 0.500000
vt 0.625000 0.500000
vt 0.625000 0.500000
vt 0.625000 0.500000
vt 0.625000 0.500000
vt 0.625000 0.500000
vt 0.625000 0.500000
vt 0.625000 0.500000
vt 0.625000 0.500000
vt 0.625000 0.500000
vt 0.625000 0.500000
vt 0.625000 0.500000
vt 0.625000 0.500000
vt 0.625000 0.500000
vt 0.625000 0.500000
vt 0.625000 0.500000
vt 0.625000 0.500000
vt 0.625000 0.500000
vt 0.625000 0.500000
vt 0.625000 0.500000
vt 0.625000 0.500000
vt 0.625000 0.500000
vt 0.625000 0.500000
vt 0.625000 0.500000
vt 0.625000 0.500000
vt 0.625000 0.500000
vt 0.625000 0.500000
vt 0.625000 0.500000
vt 0.625000 0.500000
vt 0.625000 0.500000
vt 0.625000 0.500000
vt 0.625000 0.500000
vt 0.625000 0.500000
vt 0.625000 0.500000
vt 0.625000 0.500000
vt 0.625000 0.500000
vt 0.625000 0.500000
vt 0.625000 0.500000
vt 0.625000 0.500000
vt 0.625000 0.500000
vt 0.625000 0.500000
vt 0.625000 0.500000
vt 0.625000 0.500000
vt 0.625000 0.500000
vt 0.625000 0.500000
vt 0.625000 0.500000
vt 0.625000 0.500000
vt 0.625000 0.500000
vt 0.625000 0.500000
vt 0.625000 0.500000
vt 0.625000 0.500000
vt 0.625000 0.500000
vt 0.625000 0.500000
vt 0.625000 0.500000
vt 0.625000 0.500000
vt 0.625000 0.500000
vt 0.625000 0.500000
s 0
f 3/3/1 29/29/1 122/122/1 115/115/1
f 127/127/2 110/110/2 135/135/2 215/215/2
f 28/28/3 82/82/3 128/128/3 121/121/3
f 2/2/4 57/57/4 83/83/4 30/30/4
f 109/109/5 116/116/5 160/160/5 133/133/5
f 84/84/2 56/56/2 110/110/2 127/127/2
f 115/115/1 122/122/1 189/189/1 161/161/1
f 162/162/6 188/188/6 216/216/6 134/134/6
f 121/121/3 128/128/3 214/214/3 187/187/3
f 1/1/7 4/4/7 7/7/7 6/6/7
f 4/4/8 5/5/8 8/8/8 7/7/8
f 5/5/9 17/17/9 18/18/9 8/8/9
f 6/6/10 7/7/10 10/10/10 9/9/10
f 7/7/11 8/8/11 11/11/11 10/10/11
f 8/8/12 18/18/12 19/19/12 11/11/12
f 2/2/13 12/12/13 15/15/13 14/14/13
f 12/12/14 13/13/14 16/16/14 15/15/14
f 13/13/15 25/25/15 26/26/15 16/16/15
f 14/14/16 15/15/16 18/18/16 17/17/16
f 15/15/17 16/16/17 19/19/17 18/18/17
f 16/16/18 26/26/18 27/27/18 19/19/18
f 3/3/19 20/20/19 23/23/19 22/22/19
f 20/20/20 21/21/20 24/24/20 23/23/20
f 21/21/21 9/9/21 10/10/21 24/24/21
f 22/22/22 23/23/22 26/26/22 25/25/22
f 23/23/23 24/24/23 27/27/23 26/26/23
f 24/24/24 10/10/24 11/11/24 27/27/24
f 11/11/25 19/19/25 27/27/25
f 28/28/26 31/31/26 34/34/26 33/33/26
f 31/31/27 32/32/27 35/35/27 34/34/27
f 32/32/28 44/44/28 45/45/28 35/35/28
f 33/33/29 34/34/29 37/37/29 36/36/29
f 34/34/30 35/35/30 38/38/30 37/37/30
f 35/35/31 45/45/31 46/46/31 38/38/31
f 29/29/32 39/39/32 42/42/32 41/41/32
f 39/39/33 40/40/33 43/43/33 42/42/33
f 40/40/34 52/52/34 53/53/34 43/43/34
f 41/41/35 42/42/35 45/45/35 44/44/35
f 42/42/36 43/43/36 46/46/36 45/45/36
f 43/43/37 53/53/37 54/54/37 46/46/37
f 30/30/38 47/47/38 50/50/38 49/49/38
f 47/47/39 48/48/39 51/51/39 50/50/39
f 48/48/40 36/36/40 37/37/40 51/51/40
f 49/49/41 50/50/41 53/53/41 52/52/41
f 50/50/42 51/51/42 54/54/42 53/53/42
f 51/51/43 37/37/43 38/38/43 54/54/43
f 38/38/44 46/46/44 54/54/44
f 55/55/45 58/58/45 61/61/45 60/60/45
f 58/58/46 59/59/46 62/62/46 61/61/46
f 59/59/47 71/71/47 72/72/47 62/62/47
f 60/60/48 61/61/48 64/64/48 63/63/48
f 61/61/49 62/62/49 65/65/49 64/64/49
f 62/62/50 72/72/50 73/73/50 65/65/50
f 56/56/51 66/66/51 69/69/51 68/68/51
f 66/66/52 67/67/52 70/70/52 69/69/52
f 67/67/53 79/79/53 80/80/53 70/70/53
f 68/68/54 69/69/54 72/72/54 71/71/54
f 69/69/55 70/70/55 73/73/55 72/72/55
f 70/70/56 80/80/56 81/81/56 73/73/56
f 57/57/57 74/74/57 77/77/57 76/76/57
f 74/74/58 75/75/58 78/78/58 77/77/58
f 75/75/59 63/63/59 64/64/59 78/78/59
f 76/76/60 77/77/60 80/80/60 79/79/60
f 77/77/61 78/78/61 81/81/61 80/80/61
f 78/78/62 64/64/62 65/65/62 81/81/62
f 65/65/63 73/73/63 81/81/63
f 82/82/64 85/85/64 88/88/64 87/87/64
f 85/85/65 86/86/65 89/89/65 88/88/65
f 86/86/66 98/98/66 99/99/66 89/89/66
f 87/87/67 88/88/67 91/91/67 90/90/67
f 88/88/68 89/89/68 92/92/68 91/91/68
f 89/89/69 99/99/69 100/100/69 92/92/69
f 83/83/70 93/93/70 96/96/70 95/95/70
f 93/93/71 94/94/71 97/97/71 96/96/71
f 94/94/72 106/106/72 107/107/72 97/97/72
f 95/95/73 96/96/73 99/99/73 98/98/73
f 96/96/74 97/97/74 100/100/74 99/99/74
f 97/97/75 107/107/75 108/108/75 100/100/75
f 84/84/76 101/101/76 104/104/76 103/103/76
f 101/101/77 102/102/77 105/105/77 104/104/77
f 102/102/78 90/90/78 91/91/78 105/105/78
f 103/103/79 104/104/79 107/107/79 106/106/79
f 104/104/80 105/105/80 108/108/80 107/107/80
f 105/105/81 91/91/81 92/92/81 108/108/81
f 92/92/82 100/100/82 108/108/82
f 133/133/83 136/136/83 139/139/83 138/138/83
f 136/136/84 137/137/84 140/140/84 139/139/84
f 137/137/85 149/149/85 150/150/85 140/140/85
f 138/138/86 139/139/86 142/142/86 141/141/86
f 139/139/87 140/140/87 143/143/87 142/142/87
f 140/140/88 150/150/88 151/151/88 143/143/88
f 134/134/89 144/144/89 147/147/89 146/146/89
f 144/144/90 145/145/90 148/148/90 147/147/90
f 145/145/91 157/157/91 158/158/91 148/148/91
f 146/146/92 147/147/92 150/150/92 149/149/92
f 147/147/93 148/148/93 151/151/93 150/150/93
f 148/148/94 158/158/94 159/159/94 151/151/94
f 135/135/95 152/152/95 155/155/95 154/154/95
f 152/152/96 153/153/96 156/156/96 155/155/96
f 153/153/97 141/141/97 142/142/97 156/156/97
f 154/154/98 155/155/98 158/158/98 157/157/98
f 155/155/99 156/156/99 159/159/99 158/158/99
f 156/156/100 142/142/100 143/143/100 159/159/100
f 143/143/101 151/151/101 159/159/101
f 160/160/102 163/163/102 166/166/102 165/165/102
f 163/163/103 164/164/103 167/167/103 166/166/103
f 164/164/104 176/176/104 177/177/104 167/167/104
f 165/165/105 166/166/105 169/169/105 168/168/105
f 166/166/106 167/167/106 170/170/106 169/169/106
f 167/167/107 177/177/107 178/178/107 170/170/107
f 161/161/108 171/171/108 174/174/108 173/173/108
f 171/171/109 172/172/109 175/175/109 174/174/109
f 172/172/110 184/184/110 185/185/110 175/175/110
f 173/173/111 174/174/111 177/177/111 176/176/111
f 174/174/112 175/175/112 178/178/112 177/177/112
f 175/175/113 185/185/113 186/186/113 178/178/113
f 162/162/114 179/179/114 182/182/114 181/181/114
f 179/179/115 180/180/115 183/183/115 182/182/115
f 180/180/116 168/168/116 169/169/116 183/183/116
f 181/181/117 182/182/117 185/185/117 184/184/117
f 182/182/118 183/183/118 186/186/118 185/185/118
f 183/183/119 169/169/119 170/170/119 186/186/119
f 170/170/120 178/178/120 186/186/120
f 187/187/121 190/190/121 193/193/121 192/192/121
f 190/190/122 191/191/122 194/194/122 193/193/122
f 191/191/123 203/203/123 204/204/123 194/194/123
f 192/192/124 193/193/124 196/196/124 195/195/124
f 193/193/125 194/194/125 197/197/125 196/196/125
f 194/194/126 204/204/126 205/205/126 197/197/126
f 188/188/127 198/198/127 201/201/127 200/200/127
f 198/198/128 199/199/128 202/202/128 201/201/128
f 199/199/129 211/211/129 212/212/129 202/202/129
f 200/200/130 201/201/130 204/204/130 203/203/130
f 201/201/131 202/202/131 205/205/131 204/204/131
f 202/202/132 212/212/132 213/213/132 205/205/132
f 189/189/133 206/206/133 209/209/133 208/208/133
f 206/206/134 207/207/134 210/210/134 209/209/134
f 207/207/135 195/195/135 196/196/135 210/210/135
f 208/208/136 209/209/136 212/212/136 211/211/136
f 209/209/137 210/210/137 213/213/137 212/212/137
f 210/210/138 196/196/138 197/197/138 213/213/138
f 197/197/139 205/205/139 213/213/139
f 214/214/140 217/217/140 220/220/140 219/219/140
f 217/217/141 218/218/141 221/221/141 220/220/141
f 218/218/142 230/230/142 231/231/142 221/221/142
f 219/219/143 220/220/143 223/223/143 222/222/143
f 220/220/144 221/221/144 224/224/144 223/223/144
f 221/221/145 231/231/145 232/232/145 224/224/145
f 215/215/146 225/225/146 228/228/146 227/227/146
f 225/225/147 226/226/147 229/229/147 228/228/147
f 226/226/148 238/238/148 239/239/148 229/229/148
f 227/227/149 228/228/149 231/231/149 230/230/149
f 228/228/150 229/229/150 232/232/150 231/231/150
f 229/229/151 239/239/151 240/240/151 232/232/151
f 216/216/152 233/233/152 236/236/152 235/235/152
f 233/233/153 234/234/153 237/237/153 236/236/153
f 234/234/154 222/222/154 223/223/154 237/237/154
f 235/235/155 236/236/155 239/239/155 238/238/155
f 236/236/156 237/237/156 240/240/156 239/239/156
f 237/237/157 223/223/157 224/224/157 240/240/157
f 224/224/158 232/232/158 240/240/158
f 57/57/159 2/2/159 14/14/159 74/74/159
f 74/74/160 14/14/160 17/17/160 75/75/160
f 75/75/161 17/17/161 5/5/161 63/63/161
f 63/63/162 5/5/162 4/4/162 60/60/162
f 60/60/163 4/4/163 1/1/163 55/55/163
f 30/30/164 83/83/164 95/95/164 47/47/164
f 47/47/165 95/95/165 98/98/165 48/48/165
f 48/48/166 98/98/166 86/86/166 36/36/166
f 36/36/167 86/86/167 85/85/167 33/33/167
f 33/33/168 85/85/168 82/82/168 28/28/168
f 2/2/169 30/30/169 49/49/169 12/12/169
f 12/12/170 49/49/170 52/52/170 13/13/170
f 13/13/171 52/52/171 40/40/171 25/25/171
f 25/25/172 40/40/172 39/39/172 22/22/172
f 22/22/173 39/39/173 29/29/173 3/3/173
f 56/56/174 84/84/174 103/103/174 66/66/174
f 66/66/175 103/103/175 106/106/175 67/67/175
f 67/67/176 106/106/176 94/94/176 79/79/176
f 79/79/177 94/94/177 93/93/177 76/76/177
f 76/76/178 93/93/178 83/83/178 57/57/178
f 28/28/179 121/121/179 123/123/179 31/31/179
f 31/31/180 123/123/180 124/124/180 32/32/180
f 32/32/181 124/124/181 125/125/181 44/44/181
f 44/44/182 125/125/182 126/126/182 41/41/182
f 41/41/183 126/126/183 122/122/183 29/29/183
f 116/116/184 1/1/184 6/6/184 120/120/184
f 120/120/185 6/6/185 9/9/185 119/119/185
f 119/119/186 9/9/186 21/21/186 118/118/186
f 118/118/187 21/21/187 20/20/187 117/117/187
f 117/117/188 20/20/188 3/3/188 115/115/188
f 110/110/189 56/56/189 68/68/189 114/114/189
f 114/114/190 68/68/190 71/71/190 113/113/190
f 113/113/191 71/71/191 59/59/191 112/112/191
f 112/112/192 59/59/192 58/58/192 111/111/192
f 111/111/193 58/58/193 55/55/193 109/109/193
f 128/128/194 82/82/194 87/87/194 132/132/194
f 132/132/195 87/87/195 90/90/195 131/131/195
f 131/131/196 90/90/196 102/102/196 130/130/196
f 130/130/197 102/102/197 101/101/197 129/129/197
f 129/129/198 101/101/198 84/84/198 127/127/198
f 133/133/199 160/160/199 165/165/199 136/136/199
f 136/136/200 165/165/200 168/168/200 137/137/200
f 137/137/201 168/168/201 180/180/201 149/149/201
f 149/149/202 180/180/202 179/179/202 146/146/202
f 146/146/203 179/179/203 162/162/203 134/134/203
f 187/187/204 214/214/204 219/219/204 190/190/204
f 190/190/205 219/219/205 222/222/205 191/191/205
f 191/191/206 222/222/206 234/234/206 203/203/206
f 203/203/207 234/234/207 233/233/207 200/200/207
f 200/200/208 233/233/208 216/216/208 188/188/208
f 161/161/209 189/189/209 208/208/209 171/171/209
f 171/171/210 208/208/210 211/211/210 172/172/210
f 172/172/211 211/211/211 199/199/211 184/184/211
f 184/184/212 199/199/212 198/198/212 181/181/212
f 181/181/213 198/198/213 188/188/213 162/162/213
f 134/134/214 216/216/214 235/235/214 144/144/214
f 144/144/215 235/235/215 238/238/215 145/145/215
f 145/145/216 238/238/216 226/226/216 157/157/216
f 157/157/217 226/226/217 225/225/217 154/154/217
f 154/154/218 225/225/218 215/215/218 135/135/218
f 115/115/188 161/161/188 173/173/188 117/117/188
f 117/117/187 173/173/187 176/176/187 118/118/187
f 118/118/186 176/176/186 164/164/186 119/119/186
f 119/119/185 164/164/185 163/163/185 120/120/185
f 120/120/184 163/163/184 160/160/184 116/116/184
f 135/135/189 110/110/189 114/114/189 152/152/189
f 152/152/190 114/114/190 113/113/190 153/153/190
f 153/153/191 113/113/191 112/112/191 141/141/191
f 141/141/192 112/112/192 111/111/192 138/138/192
f 138/138/193 111/111/193 109/109/193 133/133/193
f 214/214/194 128/128/194 132/132/194 217/217/194
f 217/217/195 132/132/195 131/131/195 218/218/195
f 218/218/196 131/131/196 130/130/196 230/230/196
f 230/230/197 130/130/197 129/129/197 227/227/197
f 227/227/198 129/129/198 127/127/198 215/215/198
f 189/189/183 122/122/183 126/126/183 206/206/183
f 206/206/182 126/126/182 125/125/182 207/207/182
f 207/207/181 125/125/181 124/124/181 195/195/181
f 195/195/180 124/124/180 123/123/180 192/192/180
f 192/192/179 123/123/179 121/121/179 187/187/179
f 55/55/5 1/1/5 116/116/5 109/109/5
